<?xml version="1.0" standalone="no"?>
<!DOCTYPE svg PUBLIC "-//W3C//DTD SVG 1.1//EN" "http://www.w3.org/Graphics/SVG/1.1/DTD/svg11.dtd" >
<svg xmlns="http://www.w3.org/2000/svg" xmlns:xlink="http://www.w3.org/1999/xlink" version="1.1">
<metadata></metadata>
<defs>
<font id="db_adman_xregular" horiz-adv-x="0" >
<font-face units-per-em="2048" ascent="1638" descent="-410" />
<missing-glyph horiz-adv-x="727" />
<glyph unicode="&#x2b;&#x2d;" horiz-adv-x="1133" d="M53 0v183h1029v-183h-1029zM53 674v184h421v424h183v-424h425v-184h-422v-421h-183v421h-424z" />
<glyph unicode="&#x2e;&#x2e;&#x2e;" horiz-adv-x="1363" d="M85 128q0 31 11.5 56.5t30 45.5t44.5 30q28 10 56 10q30 0 55 -10t44 -29t29.5 -45t10.5 -55h3q0 -32 -11.5 -57.5t-30.5 -44.5t-45 -29.5t-54.5 -10.5t-55.5 10.5t-45.5 29.5t-30 44.5t-11.5 54.5zM538 128q0 31 11.5 56.5t30.5 45.5t44.5 30t55.5 10t55.5 -10t44 -29 t30 -45t11.5 -55h3q0 -32 -11.5 -57.5t-31.5 -44.5t-45.5 -29.5t-55.5 -10.5q-28 0 -54.5 10.5t-45.5 29.5t-30.5 44.5t-11.5 54.5zM991 128q0 31 11.5 56.5t31.5 45.5t45.5 30t53.5 10q30 0 56.5 -10t45.5 -29t30.5 -45t11.5 -55q0 -32 -11.5 -57.5t-30.5 -44.5t-45 -29.5 t-57 -10.5q-28 0 -53.5 10.5t-45.5 29.5t-31.5 44.5t-11.5 54.5z" />
<glyph unicode="&#x3c;&#x3d;" horiz-adv-x="1137" d="M67 480v216l1004 -543v-193zM67 858v169l1004 497v-198l-760 -383l760 -411v-194z" />
<glyph unicode="&#x3e;&#x3d;" horiz-adv-x="1137" d="M67 -40v193l1004 543v-216zM67 338v194l759 411l-759 383v198l1004 -497v-169z" />
<glyph unicode="&#xe4f;&#x22;" horiz-adv-x="1540" d="M131 616q0 88 22.5 169t65 152t101 130t129.5 101t152 65q81 22 169 22t169 -22.5t152.5 -64.5t130.5 -101t101 -130t65 -152t23 -169t-23 -169t-65 -152t-101 -129t-130.5 -100.5t-152.5 -65.5t-169 -23t-169 23t-152 65.5t-129.5 100.5t-101 129t-65 152t-22.5 169z M297 616q0 -98 37.5 -184t101.5 -150.5t150.5 -102t183.5 -37.5q65 0 126.5 17t114.5 48.5t96 74t73.5 95t47 112t16.5 125t-17 126.5t-47.5 113.5t-74 96.5t-96 75t-113.5 48.5t-126 17.5q-66 0 -125.5 -17.5t-112.5 -48.5t-96.5 -73.5t-74 -95t-47.5 -113.5t-17 -127z M427 616q0 70 28 132.5t75 109.5t109 74.5t131 27.5q46 0 90.5 -13t82 -35.5t69.5 -54t54.5 -69.5t34.5 -82t12 -90q0 -69 -27 -131.5t-73.5 -109.5t-109 -74.5t-133.5 -27.5q-70 0 -131.5 27.5t-108.5 74.5t-75 109.5t-28 131.5zM544 1781h172l-29 -435h-116zM588 616 q0 -38 14 -71.5t38.5 -58t58.5 -39t71 -14.5q38 0 71.5 14.5t59 39t39.5 58t14 71.5q0 39 -14 72t-39.5 58t-58.5 39t-72 14t-72 -14t-57.5 -39t-38.5 -58t-14 -72zM824 1781h173l-26 -435h-122z" />
<glyph unicode="&#xe0e;&#xe3a;" horiz-adv-x="1351" d="M50 -386q65 48 127 82t123.5 57.5t124 34t127.5 10.5q100 0 188.5 -21t172.5 -68l141 138v906q0 88 -31.5 159t-87 122t-132.5 79q-79 27 -170 27q-48 0 -94 -12t-89.5 -34.5t-82 -52.5t-67.5 -64l89 -97v-880h-319v189h125v629l-134 145q47 82 108 149.5t135 115t156 73 t173 25.5q135 0 248 -42.5t194.5 -118.5t126.5 -181q45 -106 45 -231v-983l-310 -302q-51 38 -99 65.5t-95 45.5t-94 26.5t-97 8.5q-48 0 -94 -8.5t-93 -25.5t-94.5 -45.5t-98.5 -66.5zM1000 -693q0 26 10.5 50t28 41t42 27t49.5 10q29 0 53 -10t41 -27t27.5 -41t10.5 -50 t-10.5 -48.5t-27.5 -40t-41 -28.5t-53 -11q-27 0 -50.5 11t-41 28.5t-28 40t-10.5 48.5z" />
<glyph unicode="&#xe0f;&#xe3a;" horiz-adv-x="1351" d="M61 963q47 82 109.5 149t136.5 114.5t156 73.5t170 26q91 0 172 -19.5t149 -55t122 -87t92.5 -116t58.5 -139t20 -159.5v-980l-315 -308l-211 203l-207 -203l-352 339l138 135l214 -206l210 200l210 -203l120 117v909q0 85 -31.5 156t-87 122t-132.5 79q-79 27 -170 27 q-48 0 -94 -12t-89.5 -33t-80.5 -51t-67 -67l87 -94v-880h-319v189h125v626zM1000 -693q0 26 10.5 50t28 41t42 27t49.5 10q29 0 53 -10t41 -27t27.5 -41t10.5 -50t-10.5 -48.5t-27.5 -40t-41 -28.5t-53 -11q-27 0 -50.5 11t-41 28.5t-28 40t-10.5 48.5z" />
<glyph unicode="&#xe0e;&#xe38;" horiz-adv-x="1351" d="M50 -386q65 48 127 82t123.5 57.5t124 34t127.5 10.5q100 0 188.5 -21t172.5 -68l141 138v906q0 88 -31.5 159t-87 122t-132.5 79q-79 27 -170 27q-48 0 -94 -12t-89.5 -34.5t-82 -52.5t-67.5 -64l89 -97v-880h-319v189h125v629l-134 145q47 82 108 149.5t135 115t156 73 t173 25.5q135 0 248 -42.5t194.5 -118.5t126.5 -181q45 -106 45 -231v-983l-310 -302q-51 38 -99 65.5t-95 45.5t-94 26.5t-97 8.5q-48 0 -94 -8.5t-93 -25.5t-94.5 -45.5t-98.5 -66.5zM951 -579h198q23 0 40.5 -7.5t31.5 -21.5t21.5 -32.5t7.5 -39.5v-314h-182v233h-117 v182z" />
<glyph unicode="&#xe0f;&#xe38;" horiz-adv-x="1351" d="M61 963q47 82 109.5 149t136.5 114.5t156 73.5t170 26q91 0 172 -19.5t149 -55t122 -87t92.5 -116t58.5 -139t20 -159.5v-980l-315 -308l-211 203l-207 -203l-352 339l138 135l214 -206l210 200l210 -203l120 117v909q0 85 -31.5 156t-87 122t-132.5 79q-79 27 -170 27 q-48 0 -94 -12t-89.5 -33t-80.5 -51t-67 -67l87 -94v-880h-319v189h125v626zM951 -579h198q23 0 40.5 -7.5t31.5 -21.5t21.5 -32.5t7.5 -39.5v-314h-182v233h-117v182z" />
<glyph unicode="&#xe0e;&#xe39;" horiz-adv-x="1351" d="M50 -386q65 48 127 82t123.5 57.5t124 34t127.5 10.5q100 0 188.5 -21t172.5 -68l141 138v906q0 88 -31.5 159t-87 122t-132.5 79q-79 27 -170 27q-48 0 -94 -12t-89.5 -34.5t-82 -52.5t-67.5 -64l89 -97v-880h-319v189h125v629l-134 145q47 82 108 149.5t135 115t156 73 t173 25.5q135 0 248 -42.5t194.5 -118.5t126.5 -181q45 -106 45 -231v-983l-310 -302q-51 38 -99 65.5t-95 45.5t-94 26.5t-97 8.5q-48 0 -94 -8.5t-93 -25.5t-94.5 -45.5t-98.5 -66.5zM628 -582h301v-200q0 -29 16 -49q15 -21 49 -21q33 0 52 20.5t19 49.5v200h182v-200 q0 -53 -20 -98.5t-54 -80t-79.5 -54.5t-96.5 -20q-53 0 -99 20t-80 54t-54 79.5t-20 96.5v21h-116v182z" />
<glyph unicode="&#xe0f;&#xe39;" horiz-adv-x="1351" d="M61 963q47 82 109.5 149t136.5 114.5t156 73.5t170 26q91 0 172 -19.5t149 -55t122 -87t92.5 -116t58.5 -139t20 -159.5v-980l-315 -308l-211 203l-207 -203l-352 339l138 135l214 -206l210 200l210 -203l120 117v909q0 85 -31.5 156t-87 122t-132.5 79q-79 27 -170 27 q-48 0 -94 -12t-89.5 -33t-80.5 -51t-67 -67l87 -94v-880h-319v189h125v626zM628 -588h301v-200q0 -28 16 -49q15 -21 49 -21q33 0 52 21t19 49v200h182v-200q0 -53 -20 -99t-54 -80t-79.5 -54t-96.5 -20q-53 0 -99 20t-80 54t-54 79.5t-20 96.5v21h-116v182z" />
<glyph unicode="&#xd;" horiz-adv-x="822" />
<glyph unicode=" "  horiz-adv-x="727" />
<glyph unicode="&#x09;" horiz-adv-x="727" />
<glyph unicode="&#xa0;" horiz-adv-x="727" />
<glyph unicode="!" horiz-adv-x="596" d="M153 125q0 31 11.5 57.5t30 45.5t45.5 30.5t57 11.5q31 0 56.5 -11.5t44.5 -30.5t30 -45.5t11 -57.5q0 -28 -11.5 -54t-30.5 -45t-44.5 -29.5t-55.5 -10.5t-55.5 10.5t-45.5 29.5t-31.5 45t-11.5 54zM186 929v607h224v-607l-38 -577h-153z" />
<glyph unicode="&#x22;" horiz-adv-x="583" d="M64 1548h186l-28 -524h-134zM335 1548h185l-23 -524h-139z" />
<glyph unicode="#" horiz-adv-x="1229" d="M85 422v180h244l35 247h-228v181h250l63 390h184l-59 -390h190l60 390h184l-57 -390h195v-181h-224l-39 -247h216v-180h-244l-70 -419h-177l66 419h-188l-64 -419h-178l58 419h-217zM508 602h196l32 247h-192z" />
<glyph unicode="$" horiz-adv-x="1201" d="M102 372l182 80q45 -123 107 -186q61 -64 137 -80v561q-64 28 -123.5 63.5t-105.5 81t-73 105t-27 140.5q0 80 23.5 147.5t66.5 120.5t104 89.5t135 53.5v223h199v-232q43 -11 82.5 -31t77 -49.5t73 -71t70.5 -95.5l-158 -126q-43 65 -77.5 107t-67.5 59v-460 q45 -23 90.5 -45.5t84.5 -49.5t72.5 -58.5t57 -70.5t37 -87t13.5 -109q0 -83 -27.5 -155.5t-75 -132t-113 -103t-139.5 -67.5v-241h-199v233q-74 8 -136.5 36.5t-115 75.5t-95.5 115q-42 68 -79 159zM398 1140q0 -31 10.5 -54.5t28 -43.5t42 -37t49.5 -34v369 q-28 -11 -52 -31.5t-41.5 -47t-27 -57t-9.5 -64.5zM727 210q34 20 62.5 47t49 59t31 68t10.5 76q0 31 -10.5 56t-31 47.5t-49 43.5t-62.5 41v-438z" />
<glyph unicode="%" horiz-adv-x="1435" d="M31 1213q0 74 27 136t73.5 106.5t108 70t132.5 25.5t133.5 -25.5t108 -70t72.5 -106.5t27 -136q0 -71 -27 -132t-74 -105t-108.5 -70t-131.5 -26t-131.5 26t-108.5 70t-74 105t-27 132zM195 37l887 1548l162 -76l-898 -1564zM224 1213q0 -30 11.5 -56.5t31.5 -46t47 -31 t58 -11.5t58 11.5t48.5 31t33 46t11.5 56.5q0 31 -11.5 58t-32 47t-48.5 31t-59 11t-58 -11t-47 -31t-31.5 -47t-11.5 -58zM719 321q0 74 26.5 135t73.5 105t109.5 69t133.5 25q70 0 131.5 -25t108 -69t73.5 -105t27 -135t-27 -135t-73.5 -105t-109 -68t-130.5 -24 q-69 0 -132.5 24t-110.5 68t-73.5 105t-26.5 135zM910 321q0 -31 12 -58t32 -46.5t48 -30.5q29 -11 60 -11t58 11t48 30.5t33 46.5t12 58t-12 58t-33 47t-48 31q-27 12 -58 12t-59.5 -11.5t-48.5 -31.5t-32 -47t-12 -58z" />
<glyph unicode="&#x26;" horiz-adv-x="1515" d="M133 358q-5 64 6.5 121.5t37 108.5t61 97t76.5 88t86.5 80.5t90.5 75.5q-28 31 -55 62t-48.5 66.5t-34 74t-15.5 81.5q-6 68 15.5 130.5t62.5 110.5t99.5 79.5t123.5 37.5q70 5 130 -16t105.5 -62.5t72.5 -97t33 -118.5q5 -66 -10.5 -120.5t-45 -100.5t-70.5 -87l-84 -80 l315 -354l162 189l160 -119l-189 -219l335 -386l-241 -6l-224 253q-53 -52 -110.5 -100.5t-120 -87.5t-129.5 -64q-66 -23 -134 -29q-88 -9 -168 18t-142 81t-102 129.5t-49 163.5zM335 383q6 -51 26.5 -94t52.5 -73.5t73 -46.5t90 -13q48 4 95 26t94.5 55t93.5 75 q46 40 91 86l-329 372q-28 -23 -62.5 -48.5t-67 -54t-63 -60.5t-52.5 -66.5t-34 -74.5q-11 -40 -8 -83zM541 1221q3 -25 13.5 -49.5t25 -46.5t30.5 -42q15 -21 32 -39q25 22 51 44t46.5 48.5t31.5 56.5t9 67q-3 25 -14.5 47t-28 37.5t-39 24t-46.5 6.5q-23 -3 -45 -16 t-37.5 -34t-24 -47.5t-4.5 -56.5z" />
<glyph unicode="'" horiz-adv-x="413" d="M114 1548h186l-30 -524h-134z" />
<glyph unicode="(" horiz-adv-x="596" d="M55 657q0 121 21 239t58.5 231.5t91.5 225.5q55 111 120 220l201 -5q-68 -103 -122 -212t-90.5 -224t-56.5 -236t-20 -244q0 -88 7.5 -165.5t21.5 -150.5t36.5 -145t53.5 -148t70 -159t88 -178l-189 -6q-69 113 -123.5 230.5t-91.5 238.5t-56.5 243.5t-19.5 244.5z" />
<glyph unicode=")" horiz-adv-x="596" d="M53 1573h200q65 -109 118.5 -221t91 -226.5t58 -231.5t20.5 -237q0 -113 -19 -238t-55.5 -250t-90.5 -245t-123 -224h-192q48 94 88 176.5t70.5 160t53 151t38.5 147.5t23 152t7 165q0 122 -21.5 243.5t-58.5 238.5t-90 227t-118 212z" />
<glyph unicode="*" horiz-adv-x="1023" d="M99 1193l63 186l263 -90l-12 282h198l-9 -282l261 90l66 -186l-272 -83l172 -227l-157 -122l-155 224l-15 -21t-10.5 -14t-14 -17t-23 -30t-39.5 -52.5t-63 -86.5l-153 119l170 227z" />
<glyph unicode="+" horiz-adv-x="1133" d="M53 460v182h421v426h183v-426h425v-182h-422v-423h-183v423h-424z" />
<glyph unicode="," horiz-adv-x="430" d="M40 -148q30 19 52.5 35t40.5 32t30.5 31.5t25.5 32.5q-26 3 -48 15t-39 29.5t-26 42t-9 49.5q0 30 11 56.5t31 46t47 31.5q29 11 60 11q42 0 73.5 -15.5t51.5 -42t30 -58.5t10 -63q0 -40 -14.5 -83t-44 -85.5t-75 -84t-108.5 -79.5z" />
<glyph unicode="-" horiz-adv-x="773" d="M75 463v182h626v-182h-626z" />
<glyph unicode="." horiz-adv-x="430" d="M72 116q0 32 11.5 57.5t30.5 45.5t46 29q27 10 56 10q30 0 55.5 -9.5t44.5 -29t30.5 -45t11.5 -55.5q0 -31 -11.5 -56.5t-30.5 -45.5t-45.5 -30t-55 -10t-55.5 10t-46 29.5t-30.5 45t-11.5 54.5z" />
<glyph unicode="/" horiz-adv-x="1429" d="M92 -187l1044 1897h202l-1037 -1897h-209z" />
<glyph unicode="0" horiz-adv-x="1191" d="M55 777q0 99 15 195.5t46.5 183t77 160t106.5 126.5t135.5 83.5t163.5 30.5q88 0 162 -30.5t135 -83.5t107 -126.5t76.5 -160t47 -183t16.5 -196t-15 -196.5t-45.5 -185t-76.5 -165t-105.5 -132t-135 -86.5t-166.5 -31.5q-89 0 -163.5 31.5t-135.5 86.5t-106.5 132 t-77 165t-46.5 186t-15 196zM261 777q0 -128 25.5 -238t69.5 -192.5t106.5 -128.5t136.5 -46t135 46t105 128.5t69.5 192.5t25.5 238q0 76 -11 149.5t-32.5 138t-51.5 119t-66.5 94.5t-80.5 61t-93 21t-93 -21t-82 -61t-67.5 -94.5t-51 -119t-33 -138.5t-11.5 -149z" />
<glyph unicode="1" horiz-adv-x="1191" d="M258 1338v198h478v-1539h-201v1341h-277z" />
<glyph unicode="2" horiz-adv-x="1191" d="M119 0v148l517 529q29 29 58.5 62t56.5 67.5t51 70.5t41.5 72t27 71t9.5 68q0 57 -22 108t-59.5 88t-88.5 58t-108 21q-60 0 -111 -20.5t-88 -62.5t-58 -106t-21 -150h-205q3 91 23 165.5t52.5 132.5t78 102t99 74t112 44t118.5 14q99 0 186.5 -36t153 -99t103 -150 t37.5 -189q0 -77 -27 -150t-68 -139t-91 -123t-97 -105l-363 -376h640v-189h-957z" />
<glyph unicode="3" horiz-adv-x="1191" d="M136 460h196q3 -71 22 -125t52.5 -90t80.5 -54.5t104 -18.5q59 0 107.5 22t84 59t53.5 87q19 52 19 109q0 51 -17 94t-51 76.5t-85.5 55t-119.5 29.5v182q66 9 113.5 31t78.5 55t46 75t15 90q0 52 -17 93t-48.5 70t-72 44.5t-86.5 15.5q-47 0 -87.5 -14t-71 -46.5 t-48.5 -85t-18 -126.5h-203q0 116 32 204t89 146.5t135.5 88t173.5 29.5q88 0 165 -31t135 -86.5t91.5 -133.5t33.5 -172q0 -101 -40.5 -182.5t-122.5 -148.5q45 -31 80 -70t58.5 -84.5t36 -93.5t12.5 -100q0 -99 -32.5 -186.5t-93 -151t-148 -100t-194.5 -36.5 q-59 0 -115 13t-107 40t-93.5 67.5t-74 93.5t-50 120t-18.5 146z" />
<glyph unicode="4" horiz-adv-x="1191" d="M50 270v166l749 1100h164v-1067h170v-199h-170v-270h-205v270h-708zM300 469h458v661z" />
<glyph unicode="5" horiz-adv-x="1191" d="M58 297l181 81q36 -57 74.5 -96t78.5 -64t81.5 -35.5t84.5 -10.5q77 0 143 27.5t114 76t76 116.5t28 149q0 74 -28.5 135.5t-77.5 108.5t-113 72.5t-135 25.5q-40 0 -81 -8.5t-85.5 -24.5t-93.5 -41t-103 -56v786h786v-199h-582v-289q43 13 87 19t92 6q77 0 145.5 -19 t129 -54t109 -84t82.5 -108.5t52.5 -129t18.5 -143.5q0 -82 -20 -155t-57 -135.5t-88 -112.5t-115 -85.5t-136.5 -54t-150.5 -18.5q-69 0 -138 18.5t-133 57t-121.5 99.5t-104.5 145z" />
<glyph unicode="6" horiz-adv-x="1191" d="M61 532q0 52 8 98t21.5 88t33.5 81q19 39 45 79l439 661h247l-300 -448q12 0 23 1t27 1q74 0 141.5 -20.5t125.5 -57.5t105.5 -88.5t81.5 -114t52.5 -133.5t18.5 -147q0 -53 -10.5 -105t-30.5 -99.5t-47.5 -91t-61.5 -83.5q-77 -88 -174 -130.5t-210 -42.5 q-73 0 -141.5 19t-128 55.5t-108 86t-84 110.5t-54.5 132t-19 149zM270 535q0 -76 27 -142t71 -114.5t103.5 -76t124.5 -27.5q66 0 125.5 27.5t105 76t72.5 114.5t27 142t-27 141t-72.5 113.5t-105 75.5t-125.5 27q-65 0 -124.5 -27t-103.5 -75.5t-71 -113.5t-27 -141z" />
<glyph unicode="7" horiz-adv-x="1191" d="M94 1338v198h1028v-190l-758 -1346h-233l755 1338h-792z" />
<glyph unicode="8" horiz-adv-x="1191" d="M133 427q0 117 44.5 210.5t139.5 161.5q-77 69 -115 151q-37 81 -37 172t34 170.5t92 137.5t137.5 92t170.5 34q93 0 173 -34t138 -92t92 -137q33 -80 33 -171t-37 -173q-38 -81 -115 -150q94 -68 139.5 -161.5t45.5 -210.5q0 -65 -17 -124t-48.5 -108.5t-74.5 -89.5 t-95 -68t-111.5 -42.5t-122 -14.5t-121 14.5t-110 42.5t-95 68t-74.5 89.5t-48.5 108.5t-17.5 124zM335 436q0 -55 21.5 -103.5t58.5 -84t84.5 -56t99.5 -20.5q54 0 102.5 20.5t85.5 56t58 84t21 103.5q0 54 -21 101t-57.5 81.5t-85.5 56t-103 21.5t-102 -21.5t-83.5 -56 t-57 -82.5t-21.5 -100zM369 1124.5q0 -48.5 18.5 -91t49 -73.5t72.5 -49.5t90.5 -18.5t91 18.5t73.5 50.5t49.5 73.5t18.5 90t-19 91t-51 75t-74 51t-89 18.5t-88.5 -18.5t-73 -51t-50 -75t-18.5 -91z" />
<glyph unicode="9" horiz-adv-x="1191" d="M64 1003q0 78 19 149.5t54.5 133.5t85.5 111.5t109.5 84.5t128.5 54.5t141 19.5q74 0 143.5 -19.5t128 -56.5t106.5 -87.5t82 -113t52.5 -135t18.5 -150.5q0 -48 -7 -92t-22 -86t-35.5 -81t-44.5 -78l-430 -657h-248l302 452q-15 -3 -29 -3h-28q-71 0 -139.5 19.5 t-126.5 56.5t-106.5 88.5t-82.5 113t-53 132t-19 144.5zM273 1003q0 -76 27 -140.5t72 -113t105 -76.5t125 -28t122.5 28t101 76.5t70 113t26.5 140.5q0 73 -26.5 138.5t-70 114t-101 75.5t-122.5 27t-125 -27t-105 -75.5t-72 -113.5q-27 -66 -27 -139z" />
<glyph unicode=":" horiz-adv-x="430" d="M72 119q0 32 11.5 57.5t30.5 45t46 29.5t56 10q30 0 55.5 -10t44.5 -29.5t30.5 -45t11.5 -57.5v3q0 -31 -11.5 -56.5t-30.5 -45.5t-45.5 -30t-55 -10t-55.5 10t-46 29t-30.5 44.5t-11.5 55.5zM72 896q0 31 11.5 56.5t30.5 45t46 29.5q27 11 56 11q30 0 55.5 -10.5 t44.5 -29t30.5 -45t11.5 -54.5q0 -31 -11.5 -57.5t-30.5 -45t-45.5 -30t-55 -11.5t-55.5 11.5t-46 30t-30.5 44t-11.5 55.5z" />
<glyph unicode=";" horiz-adv-x="430" d="M40 -151q30 19 53 35.5t41 32t31.5 31t26.5 32.5q-26 3 -48.5 15t-39 30t-25.5 42t-9 49q0 29 10.5 56t30.5 47t46 31q28 11 59 11q42 0 73.5 -15.5t51.5 -41.5t30 -58t10 -64q0 -39 -14.5 -82.5t-44 -86t-75 -84t-108.5 -79.5zM75 896q0 28 11 54.5t30 45.5t44 31 q27 11 56 11q30 0 55.5 -11.5t44.5 -30.5t30.5 -45.5t11.5 -54.5q0 -30 -11.5 -55.5t-30.5 -45.5t-45.5 -31t-55 -11t-54.5 11t-45 31t-30 45.5t-11 55.5z" />
<glyph unicode="&#x3c;" horiz-adv-x="1137" d="M67 480v168l1004 498v-197l-760 -384l760 -412v-193z" />
<glyph unicode="=" horiz-adv-x="1157" d="M64 297v183h1029v-183h-1029zM64 625v184h1029v-184h-1029z" />
<glyph unicode="&#x3e;" horiz-adv-x="1137" d="M67 -40v193l759 412l-759 384v197l1004 -498v-168z" />
<glyph unicode="?" horiz-adv-x="994" d="M41 1193.5q7 68.5 33.5 127t68.5 105.5t96 79.5t117.5 50t131.5 17.5q103 0 185 -33t140.5 -90t89.5 -132.5t31 -157.5q0 -57 -14 -104.5t-38 -86.5t-54 -72.5t-60.5 -63t-60.5 -58t-53.5 -57t-37.5 -59.5t-14 -68v-230h-199v235q0 53 14.5 96.5t38 79.5t52.5 68t60 61 t61 58t52.5 60.5t37 67t14.5 76.5q0 40 -15 78t-45.5 68.5t-76 50t-108.5 19.5q-66 0 -116.5 -23t-82.5 -66t-42.5 -104t3.5 -138h-200q-16 77 -9 145.5zM361 122q0 31 10.5 56.5t29.5 45.5t46 30q24 10 56 10q28 0 55 -10t45.5 -30t30 -45.5t11.5 -56.5t-10 -57.5 t-30 -45.5t-45.5 -30.5t-56.5 -11.5q-32 0 -57.5 11.5t-44.5 30.5t-29.5 45.5t-10.5 57.5z" />
<glyph unicode="@" horiz-adv-x="1604" d="M34 774q0 108 30 207.5t82.5 186t125.5 157.5t162 121.5t189.5 78.5t208.5 28q102 0 196 -22.5t176.5 -63.5t149.5 -100t115.5 -132t75 -160t26.5 -183q0 -83 -21 -158t-57 -140.5t-85 -121t-105 -93.5t-117 -60t-121 -22q-47 0 -77.5 12t-48 29t-26 37t-11.5 38 q-68 -42 -127 -58.5t-118 -16.5q-71 0 -125.5 23.5t-92 65.5t-56.5 97t-19 121q0 64 14 131t43 131t71 121t97.5 99.5t123.5 66.5t148 24q59 0 112.5 -19.5t105.5 -71.5l17 54h159l-201 -610q-3 -3 -7.5 -15t-6.5 -27t-2 -31.5t5 -30t17 -22.5t33 -9q36 0 75 20t75 54.5 t69.5 80t58.5 96.5t40 105t15 107q0 77 -23.5 145t-64 125.5t-96 103t-121 76.5t-137.5 48t-146 17q-91 0 -175 -24t-156 -68t-132.5 -105t-104 -133.5t-67 -155t-23.5 -170.5q0 -99 28 -185t76 -157t115 -126.5t146.5 -93t169 -57.5t181.5 -20q74 0 145.5 13t138.5 41.5 t128 71.5t112 104l185 3q-63 -96 -142.5 -166t-172 -115t-193 -66.5t-205.5 -21.5q-114 0 -220.5 24t-201.5 70.5t-174.5 113.5t-138 155.5t-91 196t-32.5 231.5zM514 657q0 -38 8.5 -70.5t28.5 -56t54 -37t85 -13.5q38 0 76.5 18.5t72 47t59 63t36.5 68.5l77 239 q3 17 -4 43t-28 52t-54 44.5t-82 18.5q-44 0 -85 -18.5t-77 -50t-67.5 -72.5t-52.5 -86.5t-34 -94.5t-13 -95z" />
<glyph unicode="A" horiz-adv-x="1351" d="M0 0l619 1536h119l614 -1536h-215l-188 471h-546l-187 -471h-216zM480 669h389l-192 483z" />
<glyph unicode="B" horiz-adv-x="1104" d="M114 0v1536h352q105 0 191.5 -25.5t148.5 -78t96.5 -134.5t34.5 -196q0 -85 -23 -151q-22 -65 -82 -119q112 -60 172.5 -157.5t60.5 -222.5q0 -80 -20 -144t-54 -113.5t-82 -86.5t-106.5 -61t-123 -35.5t-132.5 -11.5h-433zM314 192h177q80 0 148 12t117 41.5t77 79.5 t28 124q0 68 -30 122t-84 81q-28 14 -61 22t-68.5 12t-72.5 5.5t-74 1.5h-157v-501zM314 889h116q43 0 82 3t73 11.5t61 24t47 41t30 61t10 86.5q0 65 -20.5 109t-60 70t-95.5 35.5t-127 9.5h-116v-451z" />
<glyph unicode="C" horiz-adv-x="1357" d="M31 764q0 108 30 209.5t82.5 189t125.5 159.5t162 125t189.5 81t208.5 28q61 0 121.5 -8.5t121.5 -28t122 -52.5t127 -83l-108 -160q-57 43 -109.5 70t-101 42.5t-92.5 19.5t-86 4q-80 0 -155 -22t-140.5 -62.5t-119.5 -95.5t-92.5 -123.5t-59.5 -143.5t-21 -158 q0 -76 22 -148t61 -136.5t93.5 -120t120 -95t139.5 -61.5q75 -22 152 -22q42 0 86 5t92.5 20.5t101 42.5t109.5 71l108 -163q-66 -49 -127 -80.5t-120.5 -51t-120.5 -28t-127 -8.5q-107 0 -207.5 28.5t-189 79.5t-161 123t-125 159t-82.5 187q-30 99 -30 207z" />
<glyph unicode="D" horiz-adv-x="1262" d="M116 0v1536h311q117 0 222.5 -24t195 -70t161.5 -113t122.5 -152.5t77.5 -189.5t27 -223q0 -118 -27 -219.5t-79 -186.5t-124.5 -152t-162 -112.5t-194 -69.5t-219.5 -24h-311zM317 192h108q132 0 242.5 40.5t191.5 115.5t126 180t45 236q0 132 -45 239t-124.5 182 t-191.5 115t-244 40h-108v-1148z" />
<glyph unicode="E" horiz-adv-x="979" d="M114 0v1536h791v-196h-591v-408h572v-196h-572v-544h591v-192h-791z" />
<glyph unicode="F" horiz-adv-x="854" d="M114 0v1536h698v-196h-495v-408h482v-196h-482v-736h-203z" />
<glyph unicode="G" horiz-adv-x="1665" d="M43 767q0 108 29.5 208.5t82 188.5t126.5 160.5t163.5 124t191.5 79.5t213 28q210 0 387 -98q178 -99 312 -292l-164 -122q-107 156 -240.5 233.5t-294.5 77.5q-82 0 -159 -20.5t-144 -58.5t-122 -92t-94.5 -119t-61 -140.5t-21.5 -157.5q0 -83 21.5 -156.5t61 -139 t94.5 -119.5t122 -92t144 -59t159 -21q109 0 204.5 36.5t170 101.5t123.5 155q50 89 67 193h-626v203h835q5 -48 5 -95q0 -67 -10 -134q-19 -112 -64 -210t-115 -181.5t-159.5 -143.5t-199 -92.5t-231.5 -32.5q-111 0 -213 28t-191.5 79.5t-163.5 122.5t-126.5 159t-82 189 t-29.5 209z" />
<glyph unicode="H" horiz-adv-x="1378" d="M114 0v1536h200v-604h751v604h200v-1536h-200v733h-751v-733h-200z" />
<glyph unicode="I" horiz-adv-x="455" d="M125 0v1536h207v-1536h-207z" />
<glyph unicode="J" horiz-adv-x="444" d="M-216 -281l144 142q39 -34 83 -36q26 0 47.5 9.5t37 25t24 38t8.5 47.5v1591h204v-1591q0 -66 -25.5 -125t-68.5 -103t-101.5 -69.5t-125.5 -25.5q-68 0 -124.5 25.5t-102.5 71.5z" />
<glyph unicode="K" horiz-adv-x="1201" d="M114 0v1536h200v-587l593 587h280l-744 -739l790 -797h-282l-637 645v-645h-200z" />
<glyph unicode="L" horiz-adv-x="683" d="M116 0v1536h201v-1344h360v-192h-561z" />
<glyph unicode="M" horiz-adv-x="1782" d="M3 0l311 1536h116l462 -1155l463 1155h116l310 -1536h-205l-192 988l-9 91l-29 -94l-392 -985h-116l-395 983l-30 99l-13 -97l-196 -985h-201z" />
<glyph unicode="N" horiz-adv-x="1615" d="M114 0v1536h125l1065 -1161v1161h200v-1536h-125l-1065 1170v-1170h-200z" />
<glyph unicode="O" horiz-adv-x="1662" d="M40 767q0 108 28.5 208.5t81 188t124.5 159t160.5 124.5t189 81t208.5 28t208 -28t188 -81t161.5 -124.5t124.5 -159t80 -188t29 -208.5t-29 -209t-80 -187.5t-124.5 -159t-161.5 -123.5t-188 -79.5t-208 -28.5t-208.5 28.5t-189 79.5t-160.5 123.5t-124.5 159t-81 187.5 t-28.5 209zM244 767q0 -81 21.5 -155.5t60 -141.5t92 -121.5t119 -93.5t141 -61t154.5 -22q80 0 153.5 22t139 61t119.5 93.5t93 121.5t61 142t22 155q0 81 -22 157t-61 141t-93 120t-119.5 94t-139 60t-153 21t-155 -21t-141 -60t-119 -94t-92 -120t-60 -140.5 t-21.5 -157.5z" />
<glyph unicode="P" horiz-adv-x="918" d="M114 0v1536h305q96 0 185 -27t156.5 -80.5t107 -135.5t39.5 -191q0 -108 -40.5 -187.5t-108.5 -133.5t-156 -80.5t-183 -26.5h-105v-674h-200zM314 869h108q58 0 110 14t91 42.5t61.5 74t22.5 108.5q0 68 -24 113.5t-64.5 71.5t-94.5 36.5t-114 10.5h-96v-471z" />
<glyph unicode="Q" horiz-adv-x="1659" d="M40 767q0 108 29 208.5t81 188.5t125 160.5t161.5 124t189.5 79.5t209 28q106 0 206.5 -28t188.5 -79.5t160.5 -122.5t125 -158t81.5 -187.5t29 -206.5q0 -148 -46 -275t-140 -241l233 -261h-280l-104 131q-103 -73 -219 -110.5t-238 -37.5q-108 0 -208.5 28t-189 78 t-160.5 122.5t-124.5 160t-81 189t-28.5 209.5zM247 766.5q0 -82.5 21.5 -157.5t59.5 -142t93 -120.5t121 -93t140.5 -60.5t155.5 -21q79 0 157 28q77 27 154 78l-274 284l155 134l265 -286q61 81 93 165t32 180q0 83 -21.5 161t-58 144.5t-90 122t-118 95.5t-140 61 t-157.5 21q-80 0 -153.5 -21t-139 -60t-120 -94t-93.5 -120t-60.5 -140.5t-21.5 -158z" />
<glyph unicode="R" horiz-adv-x="1049" d="M114 0v1536h302q68 0 133.5 -10.5t123.5 -32.5t107 -56t84.5 -82.5t55.5 -111t20 -141.5q0 -91 -26 -162t-74 -123.5t-113 -85t-145 -44.5l469 -687h-242l-451 663h-44v-663h-200zM314 869h135q57 0 108 14t90.5 42.5t64 72.5t24.5 107q0 69 -24.5 115.5t-66 72.5 t-95.5 36.5t-114 10.5h-119z" />
<glyph unicode="S" horiz-adv-x="1069" d="M37 372l182 85q31 -76 64.5 -131.5t71 -89.5t80 -49t93.5 -15q58 0 111.5 22t93 61t64 91t24.5 111q0 31 -13 58t-33 49t-45.5 41.5t-53.5 35t-56.5 29.5t-51.5 29q-48 25 -99.5 50.5t-99.5 52.5t-90.5 58.5t-74 71t-50 91t-18.5 114.5q0 91 31.5 167t87 133t132 88 t168.5 31q61 0 119.5 -15.5t111 -48t100.5 -82.5t91 -118l-153 -126q-37 55 -70 92.5t-65.5 60.5t-66.5 32t-72 9q-46 0 -84.5 -17t-67.5 -46t-44.5 -69.5t-15.5 -87.5q0 -28 10.5 -53t28.5 -45t42 -36t49.5 -30.5t49.5 -26.5t47 -23l270 -144q99 -51 145.5 -135.5 t46.5 -197.5q0 -68 -19.5 -129.5t-53.5 -114t-81.5 -93.5t-103.5 -71t-118.5 -45.5t-127.5 -15.5q-168 0 -290 99.5t-196 292.5z" />
<glyph unicode="T" horiz-adv-x="944" d="M3 1340v196h940v-196h-369v-1340h-202v1340h-369z" />
<glyph unicode="U" horiz-adv-x="1302" d="M114 591v945h203v-917q0 -94 13.5 -174.5t51 -142t103 -96t167.5 -34.5q69 0 121 15.5t89.5 44.5t62 69.5t38 90.5t18 107.5t4.5 119.5v917h205v-945q0 -142 -40 -255.5t-111 -193.5t-170 -122.5t-217 -42.5q-142 0 -243.5 42t-167 121t-96.5 193q-31 116 -31 258z" />
<glyph unicode="V" horiz-adv-x="1185" d="M3 1536h213l352 -1030l26 -106l25 106l352 1030h213l-536 -1536h-116z" />
<glyph unicode="W" horiz-adv-x="2183" d="M3 1536h210l334 -1036l27 -111l31 108l436 1039h113l431 -1030l34 -114l30 116l325 1028h210l-494 -1536h-117l-454 1105l-28 96l-26 -96l-454 -1105h-117z" />
<glyph unicode="X" horiz-adv-x="1072" d="M0 0l419 782l-402 754h224l294 -545l289 545h227l-403 -754l423 -782h-228l-311 582l-305 -582h-227z" />
<glyph unicode="Y" horiz-adv-x="1232" d="M3 1536h230l383 -670l384 670h230l-509 -888v-648h-210v648z" />
<glyph unicode="Z" horiz-adv-x="1160" d="M55 0v162l777 1178h-752v196h1005v-161l-780 -1183h780v-192h-1030z" />
<glyph unicode="[" horiz-adv-x="580" d="M82 -346v1989h432v-192h-241v-1602h241v-195h-432z" />
<glyph unicode="\" horiz-adv-x="1331" d="M102 1710h203l942 -1710h-209z" />
<glyph unicode="]" horiz-adv-x="580" d="M67 -153h244v1601h-244v195h433v-1989h-433v193z" />
<glyph unicode="^" horiz-adv-x="1198" d="M17 565l503 1020h160l504 -1017l-199 -3l-386 770l-380 -770h-202z" />
<glyph unicode="_" horiz-adv-x="1101" d="M6 -97h1090v-176h-1090v176z" />
<glyph unicode="`" horiz-adv-x="593" d="M55 1437l223 75l247 -379l-153 -71z" />
<glyph unicode="a" horiz-adv-x="1243" d="M50 541q0 114 37.5 214t108.5 174t172 116.5t226 42.5q204 0 349 -122v102h190v-1068h-190v105q-139 -125 -344 -125q-128 0 -229.5 44t-173 121t-109 179t-37.5 217zM241 541q0 -77 25 -146.5t71 -121t111.5 -83t147.5 -31.5q84 0 150 30.5t111.5 84t69.5 123.5t24 153 q0 76 -25.5 142t-72 113.5t-113.5 74.5t-149 27q-76 0 -140.5 -30.5t-110.5 -80.5t-72.5 -116.5t-26.5 -138.5z" />
<glyph unicode="b" horiz-adv-x="1246" d="M108 0v1732h194v-755q37 31 77.5 52.5t86 35.5t92.5 21t94 7q126 0 227 -42.5t172 -116t109 -174t38 -216.5q0 -77 -17 -148t-50 -133.5t-80.5 -114t-109 -88.5t-135 -57t-158.5 -20q-47 0 -93.5 7t-91 22.5t-85 40t-76.5 55.5v-108h-194zM294 544q0 -80 24 -149.5 t70.5 -121t111.5 -81.5t148 -30q82 0 148.5 31t113.5 83t71 121.5t24 146.5q0 74 -25.5 140t-72 117t-112 81.5t-140.5 30.5q-87 0 -153.5 -27.5t-113 -77.5t-70.5 -117.5t-24 -146.5z" />
<glyph unicode="c" horiz-adv-x="1026" d="M50 535q0 77 19.5 148t56 133t88.5 111.5t115 85t137 55.5t156 20q47 0 93 -6t93 -20.5t95 -38t100 -60.5l-81 -169q-47 34 -87 56t-75.5 35.5t-69.5 19t-71 5.5q-79 0 -147.5 -30.5t-119.5 -81.5t-79.5 -119t-28.5 -144q0 -75 28.5 -143t79.5 -120.5t119.5 -84 t147.5 -31.5q37 0 71 6t69.5 18.5t75.5 34t87 55.5l81 -168q-53 -34 -100.5 -58t-94.5 -39.5t-92.5 -21.5t-93.5 -6q-82 0 -156 20t-138 55.5t-115 86.5t-88 113t-56 133.5t-19 149.5z" />
<glyph unicode="d" horiz-adv-x="1246" d="M50 544q0 116 37.5 216.5t108.5 174t172.5 116t227.5 42.5q97 0 188 -29.5t165 -92.5v761h191v-1732h-191v102q-37 -31 -78.5 -53.5t-87 -37t-90.5 -21.5t-91 -7q-128 0 -230 44t-174 120.5t-110 179t-38 217.5zM244 544q0 -77 25 -146.5t71 -121.5t111.5 -83t147.5 -31 q85 0 150.5 31t111 83.5t69.5 124.5t24 154q0 77 -25.5 143t-72.5 113.5t-113.5 74.5t-148.5 27q-76 0 -140 -30.5t-110.5 -81.5t-73 -118t-26.5 -139z" />
<glyph unicode="e" horiz-adv-x="1177" d="M50 535q0 74 17 143t49.5 130.5t80 113t107.5 88.5t133 57.5t157 20.5q126 0 225.5 -45.5t168 -127t104 -193t35.5 -242.5h-883q9 -75 38 -135.5t76.5 -101.5t110 -64t136.5 -23q204 0 344 239l164 -90q-48 -86 -104 -148.5t-121.5 -102.5t-138.5 -58.5t-155 -18.5 q-84 0 -157 20t-133 57.5t-107.5 89.5t-80 114t-49.5 132t-17 145zM253 657h673q-17 54 -48.5 99.5t-74 79t-95.5 52.5t-114 19q-62 0 -116.5 -19t-99 -52.5t-76.5 -79.5t-49 -99z" />
<glyph unicode="f" horiz-adv-x="549" d="M14 880v182h114v281q0 51 6.5 101t21 94t39 83t58.5 66.5t81 44.5q49 16 109 16q26 0 58 -4q33 -6 76 -23l-49 -162q-20 6 -39.5 7.5t-39.5 1.5q-34 0 -58.5 -10t-38 -27t-19.5 -40t-8.5 -48.5t-1.5 -52.5t1 -52v-276h255v-182h-255v-880h-196v880h-114z" />
<glyph unicode="g" horiz-adv-x="1246" d="M31 -61h193q9 -82 38 -144.5t75 -104.5t107.5 -62t132.5 -20q79 0 137 18.5t100 51t68.5 78t40.5 99.5t20 114q6 62 6 125q-77 -63 -168 -94t-190 -31q-83 0 -154 21t-131 58t-107.5 89.5t-80.5 115t-50.5 132t-17.5 140.5q0 77 18.5 148t53 133t83.5 112t111 87 t134.5 57t154.5 20q202 0 344 -125v105h191v-948q0 -90 -15.5 -175t-46 -161t-77.5 -140t-108.5 -110t-139 -72.5t-168.5 -26.5q-70 0 -136.5 14.5t-126 41.5t-110 68.5t-89 97.5t-62.5 128.5t-30 159.5zM244 532q0 -79 25 -148t71 -121.5t111.5 -83.5t147.5 -31 q85 0 150.5 31t111 84.5t69.5 126t24 154.5q0 75 -25.5 140.5t-73.5 113.5t-115 76t-149 28q-76 0 -139 -30.5t-110 -82t-72.5 -118t-25.5 -139.5z" />
<glyph unicode="h" horiz-adv-x="1090" d="M108 0v1735h192v-747q120 103 279 103q120 0 197 -34.5t123.5 -94t64.5 -143.5q19 -86 19 -186v-633h-195v633q0 66 -6.5 117.5t-29 87t-65.5 54.5q-42 18 -116 18q-56 0 -97.5 -15t-71.5 -40.5t-50 -61t-31 -78t-16 -90.5t-5 -100v-525h-192z" />
<glyph unicode="i" horiz-adv-x="435" d="M82 1426q0 27 10 51.5t28.5 43t43.5 30.5q26 11 55 11t54 -11.5t44.5 -30t30 -43t10.5 -51.5q0 -30 -10.5 -55t-30 -43.5t-45 -28.5t-54 -10t-54 10t-44 28.5t-28.5 42.5t-10 56zM119 0v1062h198v-1062h-198z" />
<glyph unicode="j" horiz-adv-x="435" d="M82 1426q0 27 10 51.5t28.5 43t43.5 30.5q26 11 55 11t54 -11.5t44.5 -30t30 -43t10.5 -51.5q0 -30 -10.5 -55t-30 -43.5t-45 -28.5t-54 -10t-54 10t-44 28.5t-28.5 42.5t-10 56zM119 -622v1684h198v-1684h-198z" />
<glyph unicode="k" horiz-adv-x="1002" d="M114 0v1735h194v-1002l331 332h263l-453 -463l599 -602h-266l-465 471l-9 -8v-463h-194z" />
<glyph unicode="l" horiz-adv-x="435" d="M119 0v1738h198v-1738h-198z" />
<glyph unicode="m" horiz-adv-x="1615" d="M114 0v1062h194l-3 -99q50 68 112.5 96.5t129.5 28.5q93 0 163 -36q71 -35 116 -103q62 76 138 107q75 32 163 32q80 0 138 -17t100 -48.5t68.5 -72.5t42 -91.5t21.5 -105.5q7 -57 7 -114v-639h-198v652q0 61 -6 108.5t-25.5 80t-54.5 49.5q-36 17 -93 17 q-63 0 -106 -24.5t-69 -68.5t-36.5 -102.5t-10.5 -123.5v-588h-192v625q0 62 -7 114.5t-28.5 89.5t-58.5 57.5t-96 20.5q-37 0 -67 -14.5t-54 -41.5t-42 -61.5t-29 -73.5t-17 -79.5t-6 -78.5v-558h-194z" />
<glyph unicode="n" horiz-adv-x="1082" d="M114 0v1062h191v-108q60 63 127.5 97t144.5 34q116 0 191 -33.5t120 -94t62.5 -144t17.5 -185.5v-628h-194v628q0 73 -8 126t-29 85.5t-62.5 47.5t-106.5 15q-45 0 -82 -17t-65.5 -45.5t-50.5 -66t-36 -80.5t-21.5 -87t-7.5 -83v-523h-191z" />
<glyph unicode="o" horiz-adv-x="1229" d="M50 535q0 77 19.5 148t56 133t87.5 113t113.5 88t135 56.5t149.5 19.5q81 0 154 -19t137 -55t115 -86t88 -111.5t56.5 -133.5t19.5 -150q0 -119 -44 -220.5t-120.5 -177t-180 -118t-225.5 -42.5q-79 0 -150.5 20t-134 56t-113.5 86.5t-87.5 113t-56 133.5t-19.5 146z M247 535q0 -73 28.5 -140.5t76.5 -119t113.5 -82.5t139.5 -31q82 0 151.5 29t121.5 79.5t81 118t29 146.5q0 83 -29 151t-81 117t-121.5 76.5t-151.5 27.5q-75 0 -140.5 -29t-114 -80t-76 -119t-27.5 -144z" />
<glyph unicode="p" horiz-adv-x="1226" d="M114 -625v1687h194v-99q77 68 162 95q84 27 172 27q126 0 226 -45t170 -121.5t106.5 -179.5t36.5 -216q0 -117 -36.5 -217t-106.5 -174t-168 -116q-100 -42 -225 -42q-90 0 -175 28.5t-162 96.5v-724h-194zM305 511q0 -79 24.5 -144t69 -111.5t107.5 -73.5 q62 -26 142 -26q73 0 134 30t106 79.5t70 115t25 139.5q0 76 -24.5 147t-69 124.5t-106.5 84.5t-138 31q-83 0 -146 -30.5t-106.5 -84.5t-65.5 -125q-22 -73 -22 -156z" />
<glyph unicode="q" horiz-adv-x="1226" d="M47 520q0 76 16.5 148t49 135t79.5 114t106.5 89t132 58.5t157.5 20.5t169.5 -27.5t161.5 -91.5v96h194v-1684h-194v719q-77 -69 -162 -96q-84 -27 -172 -27q-125 0 -224.5 42t-169 115t-107.5 174q-37 98 -37 215zM244 511q0 -79 24.5 -144t69.5 -111.5t109 -73 t144 -26.5q74 0 135 30t105 79.5t69.5 115t25.5 139.5q0 76 -25.5 147t-70.5 124.5t-108 84.5t-137 31q-79 0 -143 -30.5t-107.5 -84.5t-66.5 -125q-24 -73 -24 -156z" />
<glyph unicode="r" horiz-adv-x="674" d="M114 -3v1065h194v-99q17 22 40 43.5t49 38.5t56 27t58 10q17 0 34 -1.5t37 -5t46 -11.5q28 -8 62 -20l-102 -186q-19 10 -32.5 15t-22 7.5t-14 2.5h-8.5q-44 0 -76 -15.5t-54.5 -44t-37 -65.5t-22 -76.5t-10.5 -81.5q-3 -43 -3 -80v-523h-194z" />
<glyph unicode="s" horiz-adv-x="827" d="M20 308l179 67q18 -61 40 -103t49 -67.5t60 -37t71 -11.5q34 0 66 14.5t54.5 37t37 54t14.5 67.5q0 32 -11 54t-30 38t-49 29.5t-68 26.5q-60 20 -117.5 46.5t-102.5 62.5t-73.5 85.5t-28.5 119.5q0 68 25.5 122.5t69.5 93t101 60t120 21.5q43 0 86.5 -11.5t84.5 -38 t78 -68t68 -101.5l-165 -92q-22 39 -42 64t-39 39.5t-37 19.5t-36 5q-23 0 -44.5 -8.5t-37.5 -23.5t-25.5 -33.5t-9.5 -40.5q0 -24 13 -42.5t33.5 -34t46.5 -27.5t52.5 -21t50.5 -17.5t43 -17.5q55 -24 99 -51t75.5 -63.5t47.5 -84.5t16 -113q0 -80 -29 -144.5t-78.5 -110.5 t-116.5 -72t-142 -26q-70 0 -132.5 21.5t-115 62.5t-90.5 103.5t-61 146.5z" />
<glyph unicode="t" horiz-adv-x="624" d="M40 878v184h159v384h193v-384h221v-184h-221v-878h-193v878h-159z" />
<glyph unicode="u" horiz-adv-x="1082" d="M114 433v629h191v-629q0 -71 9.5 -123t35 -86t72.5 -51t119 -17q71 0 115.5 17t71 51t36.5 86t10 123v629h194v-629q0 -102 -19.5 -186.5t-69.5 -145t-132 -94t-206 -33.5q-125 0 -206.5 33.5t-131.5 94t-69.5 145.5t-19.5 186z" />
<glyph unicode="v" horiz-adv-x="1060" d="M3 1062h207l325 -727l314 727h210l-465 -1062h-120z" />
<glyph unicode="w" horiz-adv-x="1738" d="M3 1062h210l312 -724l296 724h111l298 -724l306 724h199l-450 -1062h-119l-297 704l-281 -704h-122z" />
<glyph unicode="x" horiz-adv-x="1104" d="M-6 0l433 562l-401 500h235l291 -358l280 358h244l-396 -500l430 -562h-241l-319 413l-320 -413h-236z" />
<glyph unicode="y" horiz-adv-x="1194" d="M3 1062h210l409 -855l363 855h208l-722 -1684h-207l253 596z" />
<glyph unicode="z" horiz-adv-x="1087" d="M85 0v159l639 721h-610v182h889v-152l-642 -730h642v-180h-918z" />
<glyph unicode="{" horiz-adv-x="599" d="M53 585v134q39 28 65.5 52t43.5 48t25 51t8 62v328q0 93 16 162.5t58.5 117.5t116.5 72.5t193 30.5v-189q-55 -1 -92.5 -6t-59 -18t-31.5 -34t-10 -58v-353q0 -68 -7.5 -119t-23.5 -90.5t-38 -70.5q-24 -32 -53 -57q29 -26 51.5 -57.5t38 -72.5t22.5 -93.5t7 -122.5v-345 q0 -38 10 -61.5t33 -35t60 -14t93 -2.5v-190q-117 5 -192 30.5t-116.5 72.5t-56.5 116q-15 67 -15 161v330q0 34 -8.5 61.5t-27 53t-45.5 51.5q-27 27 -65 55z" />
<glyph unicode="|" horiz-adv-x="607" d="M207 -20v1718h193v-1718h-193z" />
<glyph unicode="}" horiz-adv-x="599" d="M20 -159q55 0 93 3.5t59 15.5t31 35t10 62v345q0 70 8 122.5t22.5 93.5t37.5 72.5t54 57.5q-30 25 -52.5 56.5t-37.5 71t-22 90.5t-7 119v353q0 37 -10 58t-32.5 34t-59.5 18t-94 6v189q118 -6 192.5 -30.5t116.5 -72.5t56.5 -117.5t14.5 -162.5v-328q0 -35 8.5 -62 t26 -51t45.5 -48t67 -52v-134q-39 -28 -66 -54.5t-44 -52t-25.5 -53t-8.5 -61.5v-330q0 -94 -15.5 -162t-58 -115t-116.5 -72.5t-193 -30.5v187z" />
<glyph unicode="~" horiz-adv-x="1252" d="M55 443q42 57 81.5 106.5t82 86.5t91 58.5t106.5 21.5q40 0 81 -11.5t82.5 -28.5t80.5 -37t74.5 -37t64.5 -28.5t50 -11.5q20 0 40 8.5t40.5 29.5t42.5 56q22 34 49 88l180 -99q-38 -61 -76.5 -113t-80 -91t-90 -61t-108.5 -22q-39 0 -76 11.5t-72.5 29t-70.5 38 t-69.5 37.5t-70 28.5t-71.5 11.5q-23 0 -42 -7t-39.5 -26t-44 -50.5t-54.5 -78.5z" />
<glyph unicode="&#xa2;" horiz-adv-x="1323" d="M233 780q0 90 28.5 172t78 147t120 109t153.5 63v155h175v-147q146 -21 288 -139l-108 -155q-29 26 -52.5 44.5t-45 31.5t-41.5 21.5t-41 13.5v-636q19 6 38.5 14.5t41 22.5t46.5 33q25 21 54 47l106 -152q-69 -60 -139 -97.5t-147 -49.5v-147h-175v153q-85 17 -156 62.5 t-120.5 111t-76.5 147.5t-27 175zM413 780q0 -52 15 -100t42 -88.5t63 -72t80 -48.5v614q-45 -17 -82 -47t-62.5 -71t-40.5 -88.5t-15 -98.5z" />
<glyph unicode="&#xa3;" horiz-adv-x="1168" d="M50 -3v189h92v453h-92v190h92v212q0 105 33.5 198.5t94.5 164.5t147.5 113t193.5 42q103 0 194.5 -42.5t159 -118.5t106.5 -182t39 -233h-200q-1 91 -25 160.5t-64 116t-94.5 71t-115.5 24.5q-60 0 -109.5 -23t-84.5 -65.5t-54 -99.5t-19 -126v-212h289v-190h-292v-453 l715 3v-192h-1006z" />
<glyph unicode="&#xa5;" horiz-adv-x="1232" d="M3 1536h230l383 -670l387 670h230l-299 -525h203v-182h-308l-74 -119h378v-185h-412v-525h-207v525h-406v185h372q-6 9 -11.5 18t-14 22.5t-18.5 32.5q-10 21 -26 46h-302v182h197z" />
<glyph unicode="&#xa9;" horiz-adv-x="1628" d="M14 769.5q0 110.5 28.5 212t81 190.5t125 161.5t162 125t192.5 80.5q104 29 215 29q109 0 210.5 -28.5t189.5 -81t161.5 -125t125 -161.5t80 -190.5t28.5 -212t-28.5 -213t-80 -192t-125 -162.5t-161.5 -124.5t-190 -80t-210 -28.5q-111 0 -214.5 28.5t-193 80 t-162 124.5t-125 162.5t-81 192t-28.5 213zM180 770q0 -90 22 -171.5t63.5 -152.5t99.5 -128t128.5 -98t152 -64t172.5 -23q88 0 167.5 23t150 64t128 98t98.5 128t63.5 152.5t22.5 171.5q0 88 -22.5 169t-63.5 150.5t-98.5 127.5t-128 99.5t-150.5 63.5q-79 22 -167 22 q-90 0 -172 -22t-152.5 -63.5t-128.5 -99.5t-99.5 -127.5t-63.5 -150.5t-22 -169zM381 761q0 67 16 128.5t46 115.5t72 98t94.5 75.5t112.5 48.5t127 17q91 0 171 -31q82 -32 156 -97l-108 -133q-34 29 -63 48.5t-55.5 29.5t-52 14t-51.5 4q-62 0 -116 -25.5t-94 -68 t-63 -101t-23 -123.5t23 -122t63 -101t94 -69.5t113 -25.5q26 0 51 4.5t52 15.5t57 30q31 18 65 48l108 -135q-77 -61 -159.5 -96t-170.5 -35q-68 0 -128.5 18t-112 50t-93 76t-71 98t-45 116.5t-15.5 127.5z" />
<glyph unicode="&#xab;" horiz-adv-x="904" d="M37 652l349 413l128 -122l-244 -291l244 -291l-128 -122zM400 652l347 413l122 -122l-241 -291l241 -291l-122 -122z" />
<glyph unicode="&#xad;" horiz-adv-x="773" d="M75 463v182h626v-182h-626z" />
<glyph unicode="&#xae;" horiz-adv-x="1659" d="M3 769.5q0 113.5 29.5 217.5t83.5 194.5t129.5 164.5t168 127t197.5 83q108 29 221.5 29t218.5 -29.5t196 -82.5t166 -127t129 -164.5t84 -194.5t30 -217q0 -114 -30 -217.5t-84 -194.5t-129 -166.5t-166 -129t-196 -83t-218.5 -29.5t-220 29.5t-199 83t-168 127.5 t-129.5 165.5t-83.5 196t-29.5 218zM169 770q0 -91 23.5 -175t66 -156.5t103 -132t134 -102t158 -65.5t178.5 -23q91 0 175 23t157 65.5t132.5 102t103 131.5t66 154t22.5 172q0 91 -22.5 174.5t-66 157t-103 133t-132.5 102t-157 66t-175 23.5q-92 0 -177.5 -23.5 t-159 -65.5t-134 -101.5t-103 -131t-66 -154.5t-23.5 -174zM497 305v908h410q91 0 155.5 -18t106 -51.5t60 -81.5t18.5 -110.5t-18.5 -108t-52 -77.5t-78 -51t-98.5 -25l255 -385h-201l-239 382h-149v-382h-169zM663 849h180h75.5t75.5 9q44 11 67.5 32.5t23.5 63.5 q0 34 -18.5 53.5t-48.5 28.5t-65.5 10.5t-69.5 1.5h-220v-199z" />
<glyph unicode="&#xbb;" horiz-adv-x="904" d="M37 361l241 291l-241 291l125 122l346 -413l-346 -413zM395 361l241 291l-241 291l128 122l346 -413l-346 -413z" />
<glyph unicode="&#xbc;" horiz-adv-x="1576" d="M122 1390v146h300v-888h-149v742h-151zM189 0l1085 1534h180l-1082 -1534h-183zM835 142v71l483 689h84v-614h99v-146h-99v-145h-152v145h-415zM1068 288h182v267z" />
<glyph unicode="&#xbd;" horiz-adv-x="1576" d="M125 1393v143h297v-888h-149v745h-148zM133 0l1085 1536h178l-1082 -1536h-181zM940 568q0 84 25.5 145.5t67 103t92.5 61.5q51 21 105 21q61 0 114 -21.5t93 -59t62 -89.5t22 -113q0 -47 -15 -87.5t-37.5 -76t-52.5 -67.5q-30 -33 -58 -64l-162 -179h322v-142h-547v116 q39 40 79.5 82.5t81 87.5t78.5 88t72 83q17 17 32 37t28 41.5t20 42.5t7 41q0 30 -10 55t-29 42t-45 27q-27 10 -55 10q-30 0 -55 -10t-44 -31.5t-29.5 -57t-10.5 -86.5h-151z" />
<glyph unicode="&#xbe;" horiz-adv-x="1576" d="M108 943h145q5 -46 16.5 -76.5t28 -49.5t37 -27t46.5 -8q27 0 51.5 11t43 30t28.5 44t10 52q0 25 -10 47t-31 38.5t-55.5 25.5t-82.5 11v140q47 3 79 13t52 25t28.5 35.5t8.5 46.5q0 22 -8.5 41.5t-23.5 34.5t-35.5 22.5t-43.5 7.5t-40 -6.5t-31 -24t-24 -46.5t-13 -75 h-151q26 296 262 296q54 0 100.5 -20t82 -54t56.5 -80q21 -45 21 -99q1 -108 -81 -182q45 -37 68.5 -86t23.5 -108q0 -60 -22 -111t-59.5 -89t-90 -59t-113.5 -21q-54 0 -102.5 18.5t-86 55.5t-61.5 93q-23 57 -23 134zM247 0l1085 1536h177l-1079 -1536h-183zM835 145v71 l486 691l81 -2v-617h99v-143h-99v-145h-152v145h-415zM1068 288h182v270z" />
<glyph unicode="&#xd7;" horiz-adv-x="1104" d="M58 192l361 360l-361 361l134 135l360 -361l361 361l135 -135l-361 -361l361 -360l-135 -134l-361 361l-360 -361z" />
<glyph unicode="&#xf7;" horiz-adv-x="1104" d="M53 460v185h1001v-185h-1001zM410 216q0 30 11.5 55.5t30.5 44.5t45 30.5t55.5 11.5t55 -11.5t45.5 -30.5t31.5 -44.5t11.5 -55.5q0 -29 -11.5 -56t-31.5 -46t-45.5 -30.5t-55.5 -11.5q-28 0 -54.5 11.5t-45.5 30.5t-30 46q-12 27 -12 56zM410 889q0 30 11.5 56 t30.5 45.5t45 30.5t55.5 11t55 -11t45.5 -30.5t31.5 -45.5t11.5 -56q0 -28 -11.5 -54t-31.5 -45.5t-45.5 -31t-55.5 -11.5q-28 0 -54.5 11.5t-45.5 31t-30.5 45.5t-11.5 54z" />
<glyph unicode="&#xe01;" horiz-adv-x="1337" d="M34 963q47 82 109.5 149.5t136.5 115t157 73t171 25.5q135 0 247.5 -42.5t193.5 -118.5t127 -181q45 -106 45 -231v-753h-194v753q0 88 -31.5 159t-87 122t-132.5 78.5t-168 27.5q-49 0 -95.5 -12t-89 -34.5t-79.5 -52.5t-69 -64l89 -97v-880h-195v818z" />
<glyph unicode="&#xe02;" horiz-adv-x="1162" d="M20 1096q68 120 158 176.5t197 56.5q79 0 147.5 -29t119.5 -78.5t79.5 -116t28.5 -139.5q0 -57 -10 -100.5t-29 -77t-45.5 -59t-59 -48t-69.5 -43.5q-34 -22 -74 -47q-26 -17 -44.5 -36.5t-31 -41.5t-18 -49t-5.5 -61q0 -48 19 -90.5t52.5 -74t78 -50.5t97.5 -19 q51 0 95.5 18.5t78 50.5t52 74.5t18.5 90.5v906h193v-906q0 -88 -35 -164.5t-93.5 -135t-138.5 -91t-170.5 -32.5t-171 32.5t-140 91t-93.5 135t-34 164.5q0 60 10 106t27.5 82.5t44 65.5t58.5 54t70 49t81 52q23 14 41.5 28.5t31 33t19.5 40.5t7 52q0 38 -15.5 70.5 t-40.5 57.5t-59 38.5t-72 13.5q-27 0 -52 -8t-49 -26.5t-47.5 -48t-46.5 -72.5z" />
<glyph unicode="&#xe03;" horiz-adv-x="1148" d="M43 1198l113 131l161 -131l152 128q130 -51 198.5 -141t68.5 -211q0 -69 -17.5 -118t-44 -84.5t-61 -61.5t-71 -47t-71 -44t-61.5 -51t-44 -66.5t-17 -95.5q0 -48 18.5 -91.5t52.5 -75.5t79 -51t97 -19t96 17.5t77 49.5t52.5 75.5t19.5 94.5v903h191v-903 q0 -60 -15.5 -113.5t-44 -100.5t-67.5 -87t-88 -67.5t-105 -42.5t-116 -15q-90 0 -171 32.5t-140 91t-94 136.5t-35 166q0 77 17 132.5t44 96.5t62.5 70t72.5 52.5t72 45t62.5 45.5t44 55t16.5 74q0 40 -15 72.5t-44 58.5l-164 -140z" />
<glyph unicode="&#xe04;" horiz-adv-x="1307" d="M116 0v802q0 71 19.5 138.5t54 125t84.5 105t109.5 82t128.5 52.5t143 18q73 0 142 -18t128.5 -52.5t108.5 -82t84 -105t55 -124t20 -139.5v-802h-196v802q0 68 -27 128.5t-74 106t-109.5 71t-131.5 25.5q-74 0 -136.5 -25.5t-108.5 -71t-72.5 -105t-26.5 -129.5v-49h344 v-185h-344v-568h-195z" />
<glyph unicode="&#xe05;" horiz-adv-x="1371" d="M116 0v835q0 82 24.5 157.5t70 141.5t112 119t148.5 93l216 -192l215 192q83 -40 149.5 -93t111.5 -119t68.5 -141.5t23.5 -157.5v-835h-193v835q0 85 -37 157q-37 70 -99 121l-239 -214l-235 214q-69 -51 -105 -123.5t-36 -157.5v-77h373v-187h-373v-568h-195z" />
<glyph unicode="&#xe06;" horiz-adv-x="1320" d="M9 1204l113 131l139 -111l128 108q55 -23 98.5 -52.5t72.5 -68t42.5 -82.5t10.5 -91q-1 -48 -14.5 -86t-35 -67t-47 -52.5t-52.5 -45.5t-53 -44.5t-46 -50t-32 -62.5t-12 -80v-44q0 -69 25.5 -130.5t71.5 -108.5t109.5 -74.5t135.5 -27.5q71 0 134.5 26t110 71t73.5 106 t27 129v812h193v-815q0 -71 -19 -137.5t-54 -124t-84.5 -105t-109 -80.5t-128 -51.5t-143.5 -18.5q-51 0 -96.5 10t-87.5 30t-81 48q-37 29 -77 63v-131h-196v538q0 66 13 116t34 88.5t48 68.5t55.5 54t54.5 44t47.5 40t34.5 42.5t13 49.5q0 20 -8 37.5t-19 32.5l-134 -120z " />
<glyph unicode="&#xe07;" horiz-adv-x="1082" d="M40 946l182 69l372 -791q11 -24 31 -36.5t52 -12.5q20 0 38 7t30 19t18.5 29t6.5 34v855h-179v190h375v-1042q0 -60 -22 -111.5t-61.5 -90.5t-92 -60.5t-113.5 -21.5q-42 0 -82.5 12t-74 34t-59.5 53.5t-45 68.5z" />
<glyph unicode="&#xe08;" horiz-adv-x="1194" d="M34 826q11 114 56.5 205.5t114 156t158.5 100t192 35.5q110 0 205 -39.5t166 -107.5t112 -160.5t41 -197.5q0 -46 -8.5 -88.5t-22.5 -84.5l-241 -645h-205l-291 829h203l193 -551l154 429q11 29 16.5 56t5.5 55q0 65 -25.5 122.5t-71 101t-105 67.5t-126.5 24 q-61 0 -115.5 -20t-98 -59.5t-73 -96.5t-38.5 -131h-196z" />
<glyph unicode="&#xe09;" horiz-adv-x="1246" d="M23 599v189h288v-319q0 -64 25 -120t66.5 -96.5t98.5 -64.5q56 -23 121 -23t122.5 25.5t100.5 68t67.5 100.5t24.5 124v338q0 65 -27 122.5t-71.5 101t-104.5 68t-126 24.5q-53 0 -102.5 -14.5t-91.5 -44.5t-74.5 -74t-51.5 -102h-200q28 103 80 182.5t120 133.5t150 81 t170 27q71 0 137.5 -18.5t125 -51t106 -78.5t81 -102t51.5 -121.5t18 -133.5v-821h-190v116q-68 -68 -144 -102q-77 -34 -171 -34q-71 0 -135 17t-120 48.5t-102 75.5t-79 98.5t-51.5 117.5t-18.5 132v130h-93z" />
<glyph unicode="&#xe0a;" horiz-adv-x="1171" d="M26 1102q68 116 157.5 174.5t197.5 58.5q65 0 123 -20.5t105.5 -57t81 -86t50.5 -106.5l338 366l145 -122l-256 -279q17 -18 33 -41t27 -51.5t18.5 -60t7.5 -65.5v-406q0 -88 -35 -165.5t-94 -135.5t-138.5 -91.5t-170.5 -33.5t-171 33.5t-139.5 91.5t-93.5 135.5 t-34 165.5q0 60 9.5 106t27.5 82t44 65.5t58 54t70.5 49t81.5 52.5q22 14 40.5 28.5t31.5 33t20 40.5t7 51q0 39 -15 71.5t-40 57.5t-59 38.5t-73 13.5q-29 0 -53 -8t-48 -26.5t-47.5 -48t-46.5 -72.5zM369 406q0 -48 19.5 -92t52.5 -77t78 -52.5t97 -19.5q51 0 96 19.5 t78.5 52.5t52 77t18.5 92v406q0 51 -24.5 101t-83.5 102q0 -11 1 -23t1 -24q0 -68 -16 -117t-43 -85t-62 -61.5t-72 -48.5t-71 -45.5t-61 -50.5t-44 -64q-17 -39 -17 -90z" />
<glyph unicode="&#xe0b;" horiz-adv-x="1143" d="M26 1201l116 131l160 -131l158 134q105 -43 169 -111t87 -156l335 363l145 -119l-256 -280q17 -17 32.5 -40.5t27 -51.5t18 -59.5t6.5 -65.5v-409q0 -88 -35 -165.5t-93 -135.5t-138 -92q-79 -33 -170 -33t-172 33.5t-140.5 91.5t-93.5 135.5t-34 165.5q0 90 22 150 t61 105.5t91.5 82.5t116.5 80q23 17 42 32.5t31.5 34t19 41t6.5 51.5q0 39 -15 72t-43 58l-172 -147zM341 406q0 -48 18.5 -92t51.5 -77t78 -52.5t99 -19.5q51 0 95 19.5t77.5 52.5t52.5 77t19 92v406q0 51 -25 99.5t-83 99.5q3 -8 3 -14.5v-13.5q0 -69 -17 -118.5t-44 -87 t-61 -65.5t-71 -51t-72 -46.5t-62 -52t-43 -66.5q-16 -39 -16 -90z" />
<glyph unicode="&#xe0c;" horiz-adv-x="2169" d="M31 963q49 82 112 150t137.5 116t159.5 74t176 26q137 0 252 -42.5t198 -119t129 -182.5q46 -107 46 -232v-191q0 -58 15.5 -110t41 -96t60 -79.5t71 -60t73.5 -38t69 -13.5q61 0 112.5 18.5t88.5 54.5t58.5 90.5t21.5 128.5v855h198v-855q0 -116 -37.5 -205.5 t-102.5 -150t-152.5 -91t-186.5 -30.5q-46 0 -89.5 12t-85 34t-80 50.5t-72.5 62.5v-139h-200v753q0 88 -31.5 159t-87.5 122t-135 78.5t-174 27.5q-48 0 -96.5 -12t-92.5 -34.5t-82 -52.5t-70 -64l91 -97l-2 -691h194v-189h-389v818z" />
<glyph unicode="&#xe0d;" horiz-adv-x="2151" d="M31 963q49 82 112 150t137.5 116t159.5 74t176 26q139 0 254 -42.5t197.5 -119t128.5 -182.5q45 -107 45 -232v-296q0 -59 23 -111.5t63 -92.5t95 -62t120 -22t119 21.5t93 59.5t61 91.5t22 118.5v849h199v-1292q0 -67 -18.5 -128.5t-51 -117t-78 -101t-102 -77.5 t-122 -49.5t-138.5 -17.5q-150 0 -265.5 73.5t-201.5 222.5l165 103q60 -105 133.5 -157t168.5 -52q66 0 122.5 23.5t98.5 64.5t66 96t24 117v74q-63 -54 -136.5 -82.5t-158.5 -28.5q-69 0 -134 17t-120 48.5t-100 75.5t-77 96.5t-50 114.5q-17 63 -17 128v295 q0 86 -31.5 157.5t-87.5 122t-135 78t-174 27.5q-48 0 -96.5 -12t-92.5 -34.5t-82 -52.5t-70 -64l91 -94v-694h192v-189h-389v818z" />
<glyph unicode="&#xe0e;" horiz-adv-x="1363" d="M50 -352q65 48 127 84.5t123.5 59.5t124 34.5t127.5 11.5q100 0 188.5 -22.5t172.5 -68.5l141 137v869q0 85 -31.5 156t-87 122t-132.5 79q-79 27 -170 27q-48 0 -94 -12t-89.5 -33t-82 -51t-67.5 -67l89 -94v-880h-319v189h125v626l-134 148q47 82 108 149t135 114.5 t156 73.5t173 26q134 0 247 -42.5t193.5 -118.5t125.5 -181q45 -106 45 -231l3 -945l-310 -302q-51 38 -99 66t-95 45t-94 25.5t-97 8.5q-96 0 -188.5 -34t-194.5 -111z" />
<glyph unicode="&#xe0f;" horiz-adv-x="1363" d="M61 963q47 82 108 149t135 114.5t156 73.5t173 26t172 -19.5t149 -55t122 -87t92.5 -116t58.5 -139t20 -159.5v-936l-340 -314l-233 206l-228 -206l-352 325l125 125l230 -206l225 203l228 -203l152 134v875q0 85 -31.5 156t-87 122t-132.5 79q-79 27 -170 27 q-48 0 -94 -12t-89.5 -33t-82 -51t-67.5 -67l89 -94v-880h-319v189h125v626z" />
<glyph unicode="&#xe10;" horiz-adv-x="1194" d="M37 826q11 114 56.5 205.5t113.5 156t157.5 100t190.5 35.5q77 0 141.5 -18t124.5 -53l156 179l150 -127l-156 -179q51 -69 79.5 -145.5t28.5 -161.5q0 -44 -8.5 -87.5t-22.5 -88.5l-241 -642h-205l-291 829h203l193 -554l156 429q10 29 15 57.5t5 56.5q0 65 -25.5 122.5 t-69.5 101t-103.5 67.5t-129.5 24q-61 0 -115 -20t-96.5 -59.5t-71.5 -97.5q-29 -56 -39 -130h-196zM136 -204l114 116l227 -212l219 203l211 -197l39 33v170h179v-236l-218 -198l-214 201l-219 -201z" />
<glyph unicode="&#xe11;" horiz-adv-x="1334" d="M-26 1204l114 131l131 -111l122 108q112 -44 167 -115q54 -70 54 -169q0 -55 -17.5 -100t-43 -84.5t-56 -76.5t-56 -75.5t-43.5 -83.5q-17 -46 -17 -100v-136l540 929q85 -9 150.5 -41.5t109.5 -82.5t65.5 -115t21.5 -139v-943h-192v954q0 51 -19.5 91t-44.5 63 l-646 -1108h-175v517q0 77 17 135t43.5 103.5t57 82.5t56 69t42.5 64t17 67q0 23 -6 40q-5 15 -17 30l-125 -120z" />
<glyph unicode="&#xe12;" horiz-adv-x="2212" d="M70 636q0 139 32.5 253t91.5 202t141 149t182 98l202 -162l200 159q82 -31 150 -76t116.5 -104.5t75 -132.5t28.5 -161v-314q0 -54 14.5 -104t40 -91.5t59 -76.5t69.5 -59t73 -37.5t68 -13.5q61 0 113 18.5t90.5 54.5t59.5 90.5t21 128.5v855h196v-855q0 -116 -37 -205.5 t-102 -149t-153 -89.5t-188 -30q-44 0 -88 12t-86 34t-80 52t-70 64v-145h-201v855q0 85 -39 150q-38 63 -100 105l-230 -181l-231 187q-46 -30 -86.5 -72.5t-70.5 -101.5t-47 -135q-17 -77 -17 -171q0 -99 24 -184.5t66.5 -148t104.5 -97t137 -34.5q19 0 35 3.5t33 12 t37 24t46 38.5l139 -134q-77 -68 -145 -100.5t-145 -32.5q-88 0 -160.5 23.5t-132 66t-103.5 103t-74 133t-44.5 156t-14.5 171.5z" />
<glyph unicode="&#xe13;" horiz-adv-x="2154" d="M31 963q49 82 112 149.5t137.5 115t159.5 73t176 25.5q137 0 252 -42.5t198 -118.5t129 -181q46 -106 46 -231l3 -296q0 -74 21.5 -129t58 -90.5t86.5 -54t108 -18.5q57 0 114.5 28.5t103 76t73.5 111.5q28 62 28 136v792h199v-1309h-199v122q-133 -142 -319 -142 q-99 0 -186 30.5t-150 91t-98.5 150t-35.5 205.5v296q0 88 -32 159t-89.5 120.5t-136.5 77t-174 27.5q-48 0 -96.5 -12t-92.5 -33t-82 -51t-70 -64l91 -97v-691h192v-189h-389v815z" />
<glyph unicode="&#xe14;" horiz-adv-x="1371" d="M70 625q0 122 24.5 223t70 178t106 134t130.5 94t148 55q79 17 155 17q68 0 136.5 -15.5t129.5 -45.5t113.5 -73t91 -99t59.5 -124q21 -66 21 -145v-824h-196v818q0 62 -22.5 114.5t-60 92.5t-88 67t-107.5 39t-118 8t-118 -26t-107 -62t-88 -99.5t-60.5 -140.5 t-22.5 -186q0 -97 24 -179t66.5 -142.5t104.5 -94.5t137 -34q19 0 35 3.5t33 12t37 24t46 38.5l139 -134q-77 -68 -145 -100.5t-145 -32.5q-130 0 -229.5 49.5t-166.5 136t-100 203t-33 250.5z" />
<glyph unicode="&#xe15;" horiz-adv-x="1381" d="M70 630q0 141 31.5 255.5t90 202.5t139.5 149t177 95l199 -162l198 162q82 -31 148 -76.5t113 -105t71.5 -133.5t24.5 -162v-855h-191v849q0 85 -39 151q-38 65 -100 108l-225 -182l-227 184q-45 -29 -83.5 -73t-68.5 -104t-47 -135q-17 -77 -17 -168q0 -98 23.5 -181 t66 -144t103 -95.5t134.5 -34.5q17 0 32 3.5t31 12t36 24t46 41.5l139 -134q-73 -68 -142 -101q-68 -32 -142 -32q-128 0 -226 49.5t-163.5 136t-98.5 203.5q-33 116 -33 252z" />
<glyph unicode="&#xe16;" horiz-adv-x="1337" d="M34 963q48 82 110.5 149.5t135 115t155 73t173.5 25.5q135 0 247.5 -42.5t193.5 -118.5t127 -181q45 -106 45 -231v-753h-194v753q0 88 -31.5 159t-87 122t-132.5 78.5t-168 27.5q-49 0 -95.5 -12t-89 -34.5t-81 -52.5t-69.5 -64l88 -97v-694l191 3v-189h-383v818z" />
<glyph unicode="&#xe17;" horiz-adv-x="1307" d="M116 0v1309h195v-169q40 46 87.5 80.5t97 60t102 38.5t103.5 13q63 0 122.5 -13.5t114.5 -40.5t101 -66.5t80 -93t54 -119t20 -144.5v-855h-196v855q0 69 -25 123t-67 90.5t-96 55.5t-110 19q-47 0 -94 -13.5t-90.5 -39t-80 -61t-64.5 -78t-43.5 -91t-15.5 -102.5v-758 h-195z" />
<glyph unicode="&#xe18;" horiz-adv-x="1238" d="M75 1000q0 55 22 102t60.5 84.5t88 66t106.5 47t115 28.5t115 10q85 0 167.5 -18.5t156.5 -61t133.5 -113t100.5 -174.5l-180 -64q-26 70 -70 117t-96.5 74t-110.5 39t-112 12q-65 0 -120 -15.5t-95.5 -37.5t-63 -46.5t-22.5 -41.5q0 -25 23.5 -43.5t58 -33t78 -24.5 t83 -15.5t71.5 -9.5t44 -7q56 -10 116 -24.5t115 -36.5t105 -54.5t87 -76.5t58 -103q21 -57 21 -134q0 -108 -41 -194.5t-112 -146.5t-164.5 -91t-199.5 -31q-105 0 -198.5 31t-163 91t-111 146.5t-41.5 194.5v258h192v-258q0 -63 24 -114t67.5 -86.5t102.5 -54.5t128 -19 q71 0 131 19t102.5 54.5t66.5 86.5t24 114q0 57 -24.5 96.5t-65 66.5t-92 44t-105.5 28.5t-106.5 18.5t-91.5 16q-37 8 -80 19t-84.5 26.5t-80 37.5t-67.5 50.5t-47 66.5t-18 84z" />
<glyph unicode="&#xe19;" horiz-adv-x="1307" d="M116 457v852h195v-852q0 -71 25 -125.5t66 -91.5t95 -56t114 -19q46 0 94 14t90.5 38t79.5 58.5t64 77t42.5 92t15.5 105.5v759h196v-1309h-196v165q-43 -43 -89.5 -77t-97 -58t-102.5 -37t-103 -13q-91 0 -179 30t-157 90t-111 149t-42 208z" />
<glyph unicode="&#xe1a;" horiz-adv-x="1307" d="M116 506v803h195v-803q0 -69 26.5 -130t72.5 -106.5t109 -71.5t136 -26q69 0 131.5 26t109.5 71.5t74 106.5t27 130v803h196v-803q0 -74 -20 -141t-55 -125t-84 -105t-108.5 -81t-128.5 -52.5t-142.5 -18.5t-142.5 18.5t-128.5 52.5t-109.5 81t-84.5 105t-54 126.5 t-19.5 139.5z" />
<glyph unicode="&#xe1b;" horiz-adv-x="1307" d="M116 508v801h195v-801q0 -68 26.5 -129t72.5 -106.5t109 -71.5t136 -26q69 0 131.5 26t109.5 71.5t74 106.5t27 129v1329h196v-1329q0 -73 -20 -139.5t-55 -124.5t-84 -105.5t-108.5 -81.5t-128.5 -52.5t-142.5 -18.5t-142.5 18.5t-128.5 52.5t-109.5 81.5t-84.5 105.5 t-54 125.5t-19.5 138.5z" />
<glyph unicode="&#xe1c;" horiz-adv-x="1476" d="M116 335v467q0 71 20 138.5t57 125t89.5 105t118 82t143.5 52.5t166 18v-190q-94 0 -167.5 -25.5t-125 -71t-79 -105t-27.5 -129.5v-467q0 -34 13 -64t35 -51t53 -33t65 -12t64 12t52.5 33t35.5 51t13 64v517h193v-517q0 -34 13 -64t35.5 -51t52.5 -33t64 -12t65 12 t53 33t35 51t13 64v974h194v-974q0 -71 -28 -135t-76.5 -110.5t-114.5 -73.5q-67 -27 -141 -27q-157 0 -262 110q-52 -54 -116.5 -82t-144.5 -28q-74 0 -140 27t-115 73.5t-77 110.5q-29 64 -29 135z" />
<glyph unicode="&#xe1d;" horiz-adv-x="1476" d="M116 335v467q0 73 20 139.5t57 125t89.5 105t118 81t143.5 52.5t166 18v-190q-94 0 -167.5 -25.5t-125 -71t-79 -105t-27.5 -129.5v-467q0 -34 13 -64t35 -51t53 -33t65 -12t64 12t52.5 33t35.5 51t13 64v517h193v-517q0 -34 13 -64t35.5 -51t52.5 -33t64 -12t65 12 t53 33t35 51t13 64v1502h194v-1502q0 -71 -28 -135t-76.5 -110.5t-114.5 -73.5q-67 -27 -141 -27q-157 0 -262 110q-52 -54 -116.5 -82t-144.5 -28q-74 0 -140 27t-115 73.5t-77 110.5q-29 64 -29 135z" />
<glyph unicode="&#xe1e;" horiz-adv-x="1529" d="M116 349v960h192v-960q0 -37 13.5 -68t38.5 -55t57.5 -37.5t70.5 -13.5q39 0 71.5 13.5t57.5 37.5t38.5 55t13.5 68v960h192v-960q0 -37 14 -68t38 -55t57 -37.5t71 -13.5t71 13.5t57 37.5t38 55t14 68v960h193v-960q0 -74 -29.5 -140.5t-80 -115.5t-118 -78t-145.5 -29 q-85 0 -156 32q-70 33 -121 87q-51 -54 -120.5 -86.5t-155.5 -32.5q-76 0 -144.5 29t-118.5 78t-79.5 115.5t-29.5 140.5z" />
<glyph unicode="&#xe1f;" horiz-adv-x="1532" d="M116 349v960h195v-960q0 -37 13.5 -68t37.5 -55t56 -37.5t70 -13.5q39 0 71.5 13.5t57.5 37.5t38.5 55t13.5 68v960h194v-960q0 -37 14.5 -68t37 -55t55.5 -37.5t71 -13.5t71 13.5t57 37.5t38 55t14 68v1488h196v-1488q0 -49 -13.5 -95.5t-38.5 -87t-59 -73.5t-75 -57.5 t-89.5 -37t-100.5 -12.5q-81 0 -152 32q-71 33 -125 87q-51 -54 -120.5 -86.5t-155.5 -32.5q-76 0 -143.5 29t-118 78t-80.5 115.5t-30 140.5z" />
<glyph unicode="&#xe20;" horiz-adv-x="1363" d="M61 963q47 82 108 149.5t135 115t156 73t173 25.5q135 0 248 -42.5t194.5 -118.5t126.5 -181q45 -106 45 -231v-753h-193v753q0 88 -31.5 159t-87 122t-132.5 79q-79 27 -170 27q-48 0 -94 -12t-89.5 -34.5t-82 -52.5t-67.5 -64l89 -97v-880h-319v189h125v629z" />
<glyph unicode="&#xe21;" horiz-adv-x="1307" d="M116 0v1309h195v-759q0 -53 15.5 -101.5t43.5 -91t64.5 -78t80 -61t89.5 -39.5t95 -14q56 0 110 19t96 56t67 91.5t25 125.5v852h196v-852q0 -79 -20 -144.5t-54 -118.5t-80 -93.5t-101 -67.5t-115 -40q-59 -13 -122 -13q-51 0 -102.5 13t-100.5 37t-96.5 58t-90.5 77 v-165h-195z" />
<glyph unicode="&#xe22;" horiz-adv-x="1293" d="M91 491l193 196q-38 34 -70 67t-57 69t-38.5 79.5t-13.5 97.5q0 66 25.5 126t71 104.5t106.5 70t131 25.5q34 0 66.5 -7t66 -22t68 -39.5t73.5 -59.5l-139 -133q-26 23 -45 36.5t-35.5 21t-30 11t-27.5 3.5q-28 0 -54.5 -10.5t-45 -29t-29 -42.5t-10.5 -55q1 -56 49 -104 l212 -212l-261 -262q14 -56 46 -102.5t76 -80t99.5 -52t114.5 -18.5q74 0 138 27t111 73t74 108.5t27 130.5v801h196v-801q0 -73 -20 -140t-55.5 -125t-84.5 -106.5t-109.5 -82.5t-130 -52.5t-146.5 -18.5q-71 0 -137 17t-125 48.5t-107 76.5t-85 102t-59.5 123.5 t-28.5 140.5z" />
<glyph unicode="&#xe23;" horiz-adv-x="1185" d="M75 443l186 63q9 -94 37.5 -158.5t71 -105t98 -59t117.5 -18.5q65 0 120.5 18.5t96.5 54t65.5 85.5t24.5 116q0 49 -21.5 83.5t-60 58t-88.5 38t-107 26t-116.5 22t-116.5 24t-107.5 34.5t-88.5 52t-59.5 75.5t-21.5 107t18.5 115t51 94t76.5 74t96 53t108 31.5t113 11 q80 0 159.5 -19.5t149.5 -62.5t126 -112.5t88 -172.5l-181 -66q-22 69 -57 116.5t-78.5 76.5t-95 41.5t-108.5 12.5q-60 0 -111 -13.5t-86.5 -38t-56 -58.5t-20.5 -76q0 -32 22 -51.5t60 -34t88.5 -25t107.5 -21t117.5 -23.5t117 -31.5t107.5 -47t89 -69t60 -95t22 -129.5 q0 -74 -20 -138t-55.5 -115t-84 -90t-103.5 -66t-116 -40t-121 -13q-58 0 -117 12t-114.5 37t-104 63.5t-86 89.5t-61.5 117q-24 68 -30 147z" />
<glyph unicode="&#xe24;" horiz-adv-x="1337" d="M34 963q47 82 108.5 149t135 114.5t156.5 73.5t174 26q135 0 247.5 -42.5t193.5 -118.5t127 -181q45 -106 45 -231v-1250h-194v1250q0 85 -31.5 156t-87 122t-132.5 78.5t-168 27.5q-49 0 -95.5 -12t-89 -34.5t-81 -52.5t-69.5 -64l88 -96v-689h191v-189h-383v815z" />
<glyph unicode="&#xe25;" horiz-adv-x="1282" d="M88 843q9 86 34.5 154t63.5 120.5t88.5 92.5t107.5 64.5t118.5 36.5t121.5 12q64 0 129 -13.5t125.5 -41t113 -68t92.5 -95t62 -122t22 -148.5v-835h-192v361q0 75 -29 132.5t-77.5 96t-110 57.5t-129.5 19q-66 0 -126 -19t-106.5 -57.5t-74 -96t-27.5 -132.5 q0 -70 35 -134.5t117 -127.5l-135 -136q-108 85 -160 185t-52 213q0 76 20 143t57 122.5t86.5 98t109.5 72t125 45.5t131 16q91 0 179 -27t167 -87v91q0 74 -30.5 130t-79.5 93.5t-113 56t-129 18.5q-61 0 -117 -15.5t-101.5 -50.5t-77.5 -89q-33 -55 -45 -135h-193z" />
<glyph unicode="&#xe26;" horiz-adv-x="1363" d="M61 963q47 82 108 149.5t135 115t156 73t173 25.5t172 -19.5t149 -55t122 -87t92.5 -115.5t58.5 -138q20 -76 20 -158v-1250h-193v1250q0 85 -31.5 156t-87 122t-132.5 79q-79 27 -170 27q-48 0 -94 -12t-89.5 -33t-82 -51t-67.5 -64l89 -97v-880h-319v189h125v626z" />
<glyph unicode="&#xe27;" horiz-adv-x="1204" d="M40 204l122 134q57 -64 118.5 -103t123.5 -54.5t121.5 -10t113.5 29.5t100 67t79.5 101t52 130.5t18.5 156.5q0 112 -32 203t-86.5 153.5t-127 95.5t-153.5 31t-165 -42.5t-163 -124.5l-122 134q79 88 166 140.5t176 72.5t176 10t165 -45.5t144.5 -95.5t115.5 -140.5 t77 -179.5t28 -212.5t-28 -212t-77 -179.5t-116.5 -141t-146 -95.5t-165 -45t-174.5 11t-175 72t-166 139.5z" />
<glyph unicode="&#xe28;" horiz-adv-x="1307" d="M116 0v809q0 71 19.5 138t54 124.5t84.5 105t109.5 81.5t128.5 52.5t143 18.5q76 0 143.5 -18.5t130.5 -50.5l156 171l150 -125l-156 -176q53 -68 83.5 -147.5t30.5 -173.5v-809h-196v809q0 69 -25.5 129t-72.5 105t-109.5 71t-134.5 26q-71 0 -133 -26t-109 -71 t-74.5 -105t-27.5 -129v-54h346v-181h-346v-574h-195z" />
<glyph unicode="&#xe29;" horiz-adv-x="1310" d="M116 506v803h195v-803q0 -70 26.5 -130.5t72.5 -106t109 -71.5t136 -26q69 0 131.5 26t109.5 71.5t74 106.5t27 130v166h-162q-44 0 -81.5 15.5t-64.5 43t-43 63t-16 75.5v119h188v-113q0 -17 17 -17h162v451h196v-451h122v-186h-122v-166q0 -74 -20 -141t-55 -125 t-84 -105t-108.5 -81t-128.5 -52.5t-142.5 -18.5t-142.5 18.5t-128.5 52.5t-109.5 81t-84.5 105t-54 126.5t-19.5 139.5z" />
<glyph unicode="&#xe2a;" horiz-adv-x="1282" d="M88 843q9 86 34.5 154.5t63.5 122t88.5 93t107.5 64.5t118.5 37t121.5 12q77 0 150 -17q74 -20 144 -57l163 179l151 -130l-159 -176q48 -60 71.5 -132.5t23.5 -157.5v-835h-192v364q0 75 -29 131.5t-77.5 94.5t-110 57t-129.5 19q-66 0 -126 -19t-106.5 -57.5t-74 -95.5 t-27.5 -130q0 -70 35 -134.5t117 -127.5l-135 -139q-108 85 -160 186t-52 215q0 75 20 141t57 121.5t86.5 98t109.5 72t125 45.5t131 16q91 0 179 -25.5t167 -85.5v88q0 74 -30.5 130t-79.5 94.5t-113 58t-129 19.5q-61 0 -117 -16t-101.5 -51.5t-77.5 -91.5 q-33 -55 -45 -135h-193z" />
<glyph unicode="&#xe2b;" horiz-adv-x="1340" d="M116 0v1309h195v-527l782 553l114 -142l-250 -178q61 -22 110 -60t84.5 -85.5t54 -105t18.5 -122.5v-642h-194v652q0 42 -16.5 78.5t-43.5 63.5t-62.5 44t-73 22t-75.5 -3t-69 -31l-379 -268v-558h-195z" />
<glyph unicode="&#xe2c;" horiz-adv-x="1532" d="M116 349v960h195v-960q0 -35 13.5 -66.5t37.5 -55t56 -36.5t70 -13q39 0 71.5 13t57.5 37.5t38.5 55.5t13.5 68v577h194v-580q0 -37 14.5 -68t37 -54t55.5 -36t71 -13t71 13t57 36.5t38 55t14 66.5v622q0 46 -10 76.5t-28.5 49.5t-44 27.5t-56.5 8.5h-163v176h172 q42 0 68.5 3t40.5 11.5t19 25.5t5 44l3 55h190v-58q0 -62 -15 -112.5t-56 -81.5q41 -46 56 -100t15 -122v-625q0 -75 -29.5 -141t-80 -114.5t-119.5 -76.5t-147 -28q-81 0 -152 32t-125 87q-51 -55 -120.5 -87t-155.5 -32q-76 0 -143.5 28t-118 76.5t-80.5 114.5t-30 141z " />
<glyph unicode="&#xe2d;" horiz-adv-x="1454" d="M91 724h647v-186h-441q17 -79 54.5 -148t93.5 -119.5t129.5 -79.5t158.5 -29q96 0 177 38.5t140 105t92.5 156.5t33.5 195.5t-33 197t-90.5 158t-139 104t-180.5 37.5q-71 0 -136.5 -20.5t-121 -61.5t-100.5 -103q-46 -60 -75 -143l-181 76q43 103 104 184t139 138 t172 86.5t199 29.5q99 0 184.5 -25.5t156.5 -71t126 -108.5t92 -139t57 -162t20 -177q0 -90 -20 -176t-59 -161.5t-95 -138.5t-127 -108.5t-155 -70.5t-180 -25q-103 0 -192 27t-163 77.5t-132.5 119.5t-95 152.5t-53.5 177.5q-15 94 -6 193z" />
<glyph unicode="&#xe2e;" horiz-adv-x="1454" d="M91 724h647v-189h-441q17 -79 54.5 -147t93.5 -118.5t129.5 -79t158.5 -28.5q96 0 177 38.5t140 104.5t92.5 156t33.5 196t-33 196.5t-90.5 156.5t-139 104t-180.5 38q-71 0 -136.5 -21t-121 -62t-101 -102t-74.5 -141l-181 73q43 104 104 186t139 139t172 86.5t199 29.5 q93 0 172.5 -21t148.5 -64l179 202l151 -128l-177 -202q80 -93 121 -214t41 -258q0 -91 -20 -177t-59 -161.5t-95 -138.5t-127 -108.5t-155 -70.5t-180 -25q-103 0 -192 28t-161.5 78.5t-129.5 120t-94 152.5t-54 177.5t-11 193.5z" />
<glyph unicode="&#xe2f;" horiz-adv-x="1191" d="M99 1309h192q0 -79 23.5 -143t63 -107.5t93.5 -67t117 -23.5q61 0 114 23.5t93 67t62.5 107.5t22.5 143h196v-1309h-196v878q-127 -97 -292 -96q-102 0 -191.5 38t-155 107.5t-104 166t-38.5 215.5z" />
<glyph unicode="&#xe30;" horiz-adv-x="621" d="M88 335v104h182v-104q0 -11 8.5 -19t15.5 -8h238v-183h-235q-44 0 -82.5 17t-67 45.5t-44 67t-15.5 80.5zM88 1044v105h182v-105q0 -12 8.5 -19t15.5 -7h238v-180l-235 -3q-44 0 -82.5 17t-67 45.5t-44 66t-15.5 80.5z" />
<glyph unicode="&#xe31;" d="M-852 1718v119h183v-119q2 -23 24 -23h645v-183l-645 -3q-42 0 -80.5 16.5t-66 45.5t-44 67t-16.5 80z" />
<glyph unicode="&#xe32;" horiz-adv-x="988" d="M-6 1163q47 43 92.5 74.5t93 51t98.5 28.5t108 9q125 0 217.5 -38t152 -103t88 -150.5t28.5 -182.5v-852h-192v829q0 151 -74.5 232.5t-222.5 81.5q-38 0 -70.5 -5t-63 -17.5t-60.5 -34.5t-61 -56z" />
<glyph unicode="&#xe33;" horiz-adv-x="988" d="M-425 1672.5q0 42.5 16.5 81t45 67t67 45t81 16.5t81.5 -16.5t67.5 -45t44.5 -67t16 -81t-16 -81t-44.5 -66t-66.5 -43.5q-40 -17 -83 -17q-44 0 -81.5 16.5t-66 44t-45 66t-16.5 81zM-284 1673q0 -14 5.5 -27t15 -23t21.5 -15.5t26 -5.5t27 5.5t21.5 15.5t14 23t5.5 27 q0 28 -19.5 46.5t-48.5 18.5q-14 0 -26 -4t-21.5 -14t-15 -21.5t-5.5 -25.5zM-6 1163q46 43 91.5 74.5t93 51t99 28.5t108.5 9q125 0 217.5 -38t152 -103t88 -150.5t28.5 -182.5v-852h-195v829q0 151 -74.5 232.5t-221.5 81.5q-37 0 -68.5 -5t-62.5 -17.5t-61 -34.5t-61 -56 z" />
<glyph unicode="&#xe34;" d="M-1181 1512v183h1065v-183h-1065z" />
<glyph unicode="&#xe35;" d="M-1181 1512v183h881v175h184v-358h-1065z" />
<glyph unicode="&#xe36;" d="M-1181 1512v183h724q0 39 15.5 71t39.5 54.5t55.5 36t68.5 13.5q38 0 70 -13.5t57 -37.5t38.5 -56t13.5 -70q0 -39 -14.5 -71.5t-38.5 -57.5t-56 -38q-31 -14 -67 -14h-906zM-341 1690q0 -12 6 -23t14.5 -19.5t18.5 -13.5q12 -5 24 -5q11 0 22.5 5t20 13.5t12.5 19.5 t4 23q0 11 -4 22.5t-12.5 20t-20 13.5t-22.5 5q-12 0 -23 -5t-19.5 -13.5t-14.5 -20t-6 -22.5z" />
<glyph unicode="&#xe37;" d="M-1181 1512v183h576v175h180v-175h125v175h184v-358h-1065z" />
<glyph unicode="&#xe38;" d="M-416 -128h197q23 0 41.5 -8.5t32 -22t21.5 -32.5t8 -39v-317h-184v233h-116v186z" />
<glyph unicode="&#xe39;" d="M-736 -128h300v-204q0 -14 5 -26.5t14 -21.5t21.5 -14.5t26.5 -5.5q32 0 50.5 19.5t18.5 48.5v204h184v-204q0 -53 -20 -99t-54 -80t-79.5 -54t-96.5 -20q-53 0 -99 20t-80 54t-54 81t-20 98v18h-117v186z" />
<glyph unicode="&#xe3a;" d="M-341 -236q0 26 10.5 50t28.5 41t40.5 27t48.5 10t50 -10t41 -27t27 -41t10 -50q0 -25 -10 -48.5t-27 -41.5t-41 -28t-50 -10t-48.5 10t-40.5 28t-28.5 41.5t-10.5 48.5z" />
<glyph unicode="&#xe3e;" />
<glyph unicode="&#xe3f;" horiz-adv-x="1133" d="M111 0v1536h328v221h174v-228q84 -11 148 -47t106.5 -91t64.5 -126q22 -72 22 -155q0 -88 -27 -155q-27 -66 -89 -126q57 -27 102 -66t77 -86.5t48.5 -103.5t16.5 -121q0 -104 -35.5 -186.5t-98 -140t-149 -90t-186.5 -35.5v-236h-174v236h-328zM288 172h151v532h-151 v-532zM288 878h151v482h-151v-482zM613 172q60 4 112.5 23t92.5 54t62 84.5t22 115.5q0 71 -23.5 116.5t-63.5 73.5t-92.5 42.5t-109.5 19.5v-529zM613 889q43 11 73.5 34t49.5 52.5t28.5 66.5t9.5 80q0 85 -39 142.5t-122 81.5v-457z" />
<glyph unicode="&#xe40;" horiz-adv-x="514" d="M159 0v1309h196v-1309h-196z" />
<glyph unicode="&#xe41;" horiz-adv-x="941" d="M159 0v1309h196v-1309h-196zM588 0v1309h194v-1309h-194z" />
<glyph unicode="&#xe42;" horiz-adv-x="535" d="M-53 1690q0 64 25 103t63.5 61t84 29t84.5 7h381v-183h-399q-16 0 -30 -4.5t-14 -18.5q0 -17 33 -35q39 -26 74 -52t59 -58t38.5 -72.5t14.5 -94.5v-1372h-196v1375q0 25 -10 45t-25.5 35t-34 27t-37.5 25q-20 14 -40.5 31.5t-36 39.5t-25 50t-9.5 62z" />
<glyph unicode="&#xe43;" horiz-adv-x="535" d="M-111 1521q0 88 25.5 159.5t71 121.5t106.5 77t130 27t129.5 -25.5t106 -70.5t71.5 -105.5t26 -128.5q0 -71 -27.5 -131.5t-70.5 -104.5l-93 -93v-1247h-195v1326q11 12 30.5 29t40.5 36.5t42.5 42.5t38.5 47t28.5 48t11.5 47q0 27 -10 52t-28.5 43.5t-44 30t-54 11.5 t-55 -11.5t-45.5 -35.5t-29 -59.5t-10 -85.5h-196z" />
<glyph unicode="&#xe44;" horiz-adv-x="535" d="M-50 1707v183h382q29 0 58 -3t58 -10.5t54.5 -22t45.5 -37t31.5 -54t11.5 -73.5q0 -34 -10 -62t-25.5 -50.5t-35.5 -40.5t-40 -30q-17 -12 -37 -24.5t-35.5 -27.5t-25.5 -35t-10 -45v-1375h-194v1372q0 54 13 94.5t37.5 72.5t58.5 58.5t77 51.5q31 18 31 35 q0 14 -14.5 18.5t-28.5 4.5h-402z" />
<glyph unicode="&#xe45;" horiz-adv-x="1002" d="M-6 1163q47 43 92.5 74.5t93 51t98.5 28.5t108 9q125 0 217.5 -38t152 -103t88 -150.5t28.5 -182.5v-1349h-192v1326q0 151 -74.5 232.5t-222.5 81.5q-38 0 -70.5 -5t-63 -17.5t-60.5 -34.5t-61 -56z" />
<glyph unicode="&#xe46;" horiz-adv-x="1374" d="M108 807q0 88 25.5 166.5t75 146t122 120t163.5 86.5l163 -163l167 163q90 -34 161 -86.5t121 -119t75 -145.5q26 -78 26 -166v-1306h-192v1306q0 46 -10.5 87t-32 78t-49.5 68.5t-65 56.5l-201 -200l-200 200q-37 -25 -65 -57t-49.5 -70t-32.5 -80q-10 -40 -10 -85 q0 -37 7.5 -71.5t24 -69t42.5 -71t65 -75.5l-134 -134q-102 102 -150 205q-47 105 -47 216z" />
<glyph unicode="&#xe47;" d="M-1110 1783.5q0 62.5 19 115t54.5 91t85 59.5t110.5 21h725v-173h-725q-22 0 -40.5 -10t-30 -25.5t-18.5 -35.5t-7 -42.5t7 -42.5t18.5 -35.5t28.5 -24t40 -8.5q19 0 37.5 7t31.5 22.5t20 42t7 64.5h170q0 -38 9 -64.5t21.5 -42t30.5 -22.5t36 -7q20 0 38.5 7t31 22.5 t20 42t7.5 64.5h176q0 -74 -21.5 -132t-58.5 -98t-86 -61t-104 -21q-54 0 -101 19.5t-82 54.5q-34 -35 -80.5 -54.5t-100.5 -19.5q-61 0 -110.5 21t-85 59.5t-54.5 91t-19 115z" />
<glyph unicode="&#xe48;" d="M-297 1971v358h181v-358h-181z" />
<glyph unicode="&#xe49;" d="M-713 2329q67 62 155 62q47 0 91.5 -17t76.5 -45.5t47.5 -65t1.5 -79.5l-11 -40q7 0 16 1.5t28 1.5h308v-179h-648q9 11 22 31t27 43t29.5 45.5t27 41t20 32.5t8.5 17q0 53 -41 53q-23 -2 -41 -19z" />
<glyph unicode="&#xe4a;" d="M-777 2139q0 42 16.5 79t45 65.5t65.5 44t79 15.5q17 0 34 -3t33.5 -9t30 -14.5t21.5 -18.5q17 19 51.5 32t68.5 13q42 0 80 -15t65.5 -42t44 -63t17.5 -79h192v-173h-442l78 146q6 9 5 21t-5 21t-12.5 15.5t-19.5 6.5q-6 0 -13 -1.5t-14.5 -8.5t-13 -20.5t-5.5 -36.5 h-150q0 20 -3.5 33.5t-9.5 20.5t-13.5 10t-19.5 3q-17 0 -27 -14t-10 -28v-10.5t4.5 -17t15.5 -21t33 -22.5l-117 -114q-29 25 -49 48t-33 45.5t-18 45.5t-5 46z" />
<glyph unicode="&#xe4b;" d="M-422 2096v158h122v129h184v-127h122v-157h-122v-128h-184v125h-122z" />
<glyph unicode="&#xe4c;" d="M-449 2009q0 43 16 80.5t42.5 64.5t63.5 42.5t80 15.5h204v-173h-204q-6 0 -16 -7t-10 -23q0 -4 1 -9.5t6 -13t14 -16.5q8 -9 25 -22l-122 -119q-29 28 -48.5 51.5t-31 45.5t-16 42t-4.5 41z" />
<glyph unicode="&#xe4d;" d="M-425 1672.5q0 42.5 16.5 81t45 67t67 45t81 16.5t81.5 -16.5t67.5 -45t44.5 -67t16 -81t-16 -81t-44.5 -66t-66.5 -43.5q-40 -17 -83 -17q-44 0 -81.5 16.5t-66 44t-45 66t-16.5 81zM-284 1673q0 -14 5.5 -27t15 -23t21.5 -15.5t26 -5.5t27 5.5t21.5 15.5t14 23t5.5 27 q0 28 -19.5 46.5t-48.5 18.5q-14 0 -26 -4t-21.5 -14t-15 -21.5t-5.5 -25.5z" />
<glyph unicode="&#xe4e;" d="M-500 1599q0 51 17 91t53 72q-70 71 -70 166q0 49 18 91.5t50 73.5t76 49.5t95 18.5q48 0 93.5 -22t92.5 -66l-103 -96q-25 25 -44 36.5t-39 11.5t-38.5 -8t-32 -20.5t-21.5 -30.5t-8 -38q0 -42 31.5 -69t99.5 -27v-137q-34 0 -58 -7t-40.5 -19.5t-24.5 -30.5 q-8 -19 -8 -39q0 -43 31.5 -69t99.5 -26v-138q-61 0 -110.5 18.5t-85.5 50.5t-55 74t-19 90z" />
<glyph unicode="&#xe4f;" horiz-adv-x="1540" d="M131 616q0 88 22.5 169t65 152t101 130t129.5 101t152 65q81 22 169 22t169 -22.5t152.5 -64.5t130.5 -101t101 -130t65 -152t23 -169t-23 -169t-65 -152t-101 -129t-130.5 -100.5t-152.5 -65.5t-169 -23t-169 23t-152 65.5t-129.5 100.5t-101 129t-65 152t-22.5 169z M297 616q0 -98 37.5 -184t101.5 -150.5t150.5 -102t183.5 -37.5q65 0 126 17t113.5 48.5t95 74t73 95.5t47 113.5t16.5 125.5l3 -3q0 66 -17 127t-47.5 113.5t-74 96.5t-96 75t-113.5 48.5t-126 17.5q-66 0 -125.5 -17.5t-112.5 -48.5t-96.5 -73.5t-74 -95t-47.5 -113.5 t-17 -127zM427 616q0 70 28 132.5t75 109.5t109 74.5t131 27.5q46 0 90.5 -13t82 -35.5t69.5 -54t54.5 -69.5t34.5 -82t12 -90q0 -69 -27 -131.5t-73.5 -109.5t-109 -74.5t-133.5 -27.5q-70 0 -131.5 27.5t-108.5 74.5t-75 109.5t-28 131.5zM588 616q0 -38 14 -71.5 t38.5 -58t58.5 -39t71 -14.5q38 0 71.5 14.5t59 39t39.5 58t14 71.5q0 39 -14 72t-39.5 58t-58.5 39t-72 14t-72 -14t-57.5 -39t-38.5 -58t-14 -72z" />
<glyph unicode="&#xe50;" horiz-adv-x="1285" d="M61 547q0 79 20.5 152t59 137t91.5 116.5t118 89.5t140 57t155 20q81 0 155.5 -20t139.5 -57t119 -89.5t92 -116.5t58.5 -137t20.5 -152q0 -80 -20.5 -153t-58.5 -137t-92 -116t-119 -89.5t-139 -57.5t-156 -20q-81 0 -155.5 20t-139.5 57.5t-118 89.5t-91.5 116t-59 138 t-20.5 152zM256 547q0 -80 29.5 -149t83 -121.5t124.5 -83.5q69 -31 152 -31q82 0 153 31t123.5 83.5t83 121.5t30.5 149q0 79 -30.5 148t-83 121.5t-123.5 84t-153 31.5q-83 0 -153 -31.5t-123.5 -84t-83 -122t-29.5 -147.5z" />
<glyph unicode="&#xe51;" horiz-adv-x="1285" d="M77.5 659q-2.5 40 7 79.5t26.5 73.5q34 67 86.5 123t120 97.5t146.5 63.5q78 23 166 23q80 0 155.5 -20t140.5 -57t118.5 -89.5t91 -116.5t59 -137t21.5 -152q0 -80 -21.5 -153t-59 -137t-91 -116t-118.5 -89.5t-140 -57.5q-76 -20 -156 -20q-238 0 -452 206l136 134 q42 -40 82 -69t79 -47.5t77.5 -27t77.5 -8.5q83 0 154 31t123.5 83.5t83 122.5t30.5 148q0 79 -30.5 148t-83 121.5t-123.5 84t-154 31.5q-61 0 -115.5 -17.5t-100 -45.5t-80.5 -67q-36 -38 -56 -81q-10 -20 -10.5 -35.5t4.5 -24.5t14 -14t22 -5h192v-188h-198 q-58 0 -100 17t-69 45.5t-40 65.5t-15.5 77z" />
<glyph unicode="&#xe52;" horiz-adv-x="1482" d="M116 596v753h195v-753q0 -90 29 -167t84.5 -133.5t136.5 -88.5t186 -32q99 0 181 29t138 84.5t87 135t31 178.5q0 21 -0.5 54.5t-4 70.5t-10.5 74t-20 67.5t-34.5 49.5t-52.5 19q-42 0 -69 -25.5t-27 -68.5v-105h-192v105q0 43 -29 68.5t-79 25.5q-51 0 -80 -32 q-28 -30 -28 -81q0 -13 3.5 -26.5t16.5 -29t35.5 -32.5t60.5 -37l-146 -144q-47 34 -77.5 67.5t-50 66t-28 67t-8.5 68.5q0 56 19.5 110t58.5 98t95.5 69.5t128.5 25.5q60 0 111 -21q49 -21 92 -55q43 34 94 55t111 21q71 0 122 -25.5t85 -69.5t53 -99t30 -113.5t13 -115 t2 -102.5q0 -94 -20.5 -176t-60.5 -151t-95.5 -122.5t-125.5 -90t-153 -56.5t-177 -20q-97 0 -180.5 21t-154 61t-125 94.5t-93 122t-58.5 147t-20 164.5z" />
<glyph unicode="&#xe53;" horiz-adv-x="1479" d="M70 538q0 91 24.5 181t77 169.5t136.5 143.5t203 105l244 -241l239 234q97 -38 175 -95t132 -129t83.5 -158t29.5 -180q0 -99 -28 -191.5t-83.5 -170.5t-138.5 -140.5t-193 -105.5l-91 168q88 31 152 76.5t106.5 101.5t62.5 122t20 140q0 54 -13.5 103.5t-38 93.5 t-60 79.5t-79.5 62.5l-275 -274l-284 286q-54 -31 -93.5 -73t-66 -92t-40 -106t-13.5 -113q0 -73 21.5 -140.5t61.5 -119t96.5 -84t127.5 -35.5q6 0 13 1.5t20 7t31.5 15.5t42.5 27l78 -176q-31 -17 -57 -27t-48.5 -17t-41 -10t-35.5 -3q-82 3 -150.5 26t-123.5 63.5 t-98 94.5t-70.5 115.5t-41.5 129.5t-14 135z" />
<glyph unicode="&#xe54;" horiz-adv-x="1337" d="M70 550q0 79 20.5 152t58.5 137t92 116.5t119 89.5t139.5 57t155.5 20h447q3 0 6 2q2 1 5 3l164 216l160 -108l-177 -230q-26 -31 -62 -51t-88 -20h-455q-83 0 -154.5 -31t-124 -83.5t-84 -122t-31.5 -147.5q0 -80 31.5 -149t84 -120t124 -81.5t154.5 -30.5q59 0 115 15 q54 15 105 46l-159 156q-34 34 -60 71t-34.5 74.5t4.5 75.5t51 77l90 90l140 -135l-89 -84l477 -467l-138 -135l-139 138q-79 -53 -172 -82t-191 -29q-81 0 -155.5 20t-139.5 57t-119 89.5t-92 116.5t-58.5 136t-20.5 151z" />
<glyph unicode="&#xe55;" horiz-adv-x="1337" d="M70 555q0 100 31.5 188.5t89 161t136.5 125t173 78.5q-9 25 -9 55q0 51 20 94.5t54 74.5t79.5 49t94 18t92.5 -17t78 -48.5t54 -74.5t20 -96v-19t-3 -17h119q4 0 9 3q2 0 5 3l164 216l160 -108l-177 -233q-26 -31 -62 -49.5t-88 -18.5h-458q-83 0 -154 -31t-123.5 -84 t-83 -122.5t-30.5 -147.5q0 -79 31.5 -148t84 -121.5t124 -83t154.5 -30.5q59 0 115 16q54 16 105 45l-159 156q-34 34 -60 71t-34.5 74.5t4.5 75.5t51 77l90 90l140 -135l-89 -84l477 -470l-138 -135l-139 144q-162 -114 -363 -114q-81 0 -155.5 20t-139.5 57.5t-119 89.5 t-92 115.5t-58.5 137.5t-20.5 152zM639 1163q0 -20 8.5 -37.5t21.5 -30t31.5 -18.5t37.5 -6q20 0 38.5 6t31.5 18.5t20 30t7 37.5t-7 37.5t-20 30.5t-31.5 21t-38.5 8q-19 0 -37.5 -8t-31.5 -21t-21.5 -30t-8.5 -38z" />
<glyph unicode="&#xe56;" horiz-adv-x="1265" d="M82 1116l137 134l328 -328l203 203q102 -29 185 -84.5t142 -129t91.5 -163t32.5 -186.5q0 -79 -20.5 -153t-58 -138t-91.5 -117t-118.5 -91.5t-139 -59t-157.5 -20.5q-76 0 -146 18.5t-128 51t-106 76.5q-49 44 -85.5 92.5t-49.5 91t-8.5 81t23.5 72.5t46.5 66.5t60.5 64 t65 63.5l137 -135q-9 -8 -26 -21t-35 -27t-35 -30.5t-28 -34t-12 -37.5t13 -40q26 -34 60 -64t74.5 -51t86 -33t93.5 -12q83 0 154 30.5t125 83t83.5 123.5t29.5 150q0 56 -15.5 107t-43 95.5t-67 81.5t-85.5 61l-250 -252z" />
<glyph unicode="&#xe57;" horiz-adv-x="1496" d="M67 544q0 91 24.5 181t78.5 169.5t138 145t203 106.5l244 -244l239 238q34 -14 68 -29t62.5 -33.5t53.5 -40.5q25 -23 43 -52v364h193v-775q0 -100 -28 -192t-83.5 -170.5t-138.5 -140.5t-193 -105l-91 167q88 32 152 77.5t106.5 101.5t62.5 122t20 140q0 51 -12.5 99 t-37 92t-60 82.5t-81.5 68.5l-275 -277l-284 287q-54 -30 -93.5 -72t-66 -92.5t-40 -105.5t-13.5 -112q0 -75 21.5 -142.5t61.5 -119t96 -82.5q57 -32 128 -35q4 0 12 2t21 7t31.5 15t42.5 27l78 -179q-31 -17 -57 -27t-48.5 -17t-42.5 -10t-37 0q-82 3 -150.5 26.5 t-123.5 64t-97.5 93t-70.5 115t-42 129t-14 133.5z" />
<glyph unicode="&#xe58;" horiz-adv-x="1506" d="M67 535q0 81 22 156.5t61 140.5t93.5 119t122 92.5t145 60t161.5 21.5h544q4 0 8 8l166 216l161 -108l-179 -233q-26 -31 -63 -51t-88 -20h-549q-86 0 -160.5 -31t-129.5 -86t-88 -128t-33 -157q0 -56 16 -108t42.5 -97.5t66 -82.5t85.5 -64l284 280l299 -291 q39 7 72.5 27.5t58.5 49.5t39 66t14 77q0 47 -18.5 89t-55.5 72.5t-90 47.5q-52 18 -123 18v190q110 0 198 -32.5t151 -88.5t97 -132t34 -164q0 -85 -34 -160.5t-93.5 -131t-140.5 -88t-178 -32.5l-230 224l-244 -238q-102 34 -183.5 89.5t-139 129t-89.5 162.5t-32 188z " />
<glyph unicode="&#xe59;" horiz-adv-x="1529" d="M72 552q0 80 21 152.5t59 136.5t89.5 115.5t113.5 90t132 58.5t141 20q39 0 77.5 -8t72.5 -24.5t62.5 -42t48.5 -59.5q47 50 85 76t77.5 37.5t84.5 11.5h108q23 0 44 20.5t42.5 52.5t44 71t45.5 78l151 -88q-18 -27 -37.5 -60.5t-42.5 -67.5t-47.5 -67t-52.5 -60t-59 -43 q-31 -15 -67 -18q-38 -2 -65 -1t-48.5 1t-38.5 -3.5t-34 -14t-38 -30.5t-50 -54l497 -771l-156 -95l-602 930q-16 20 -41 31q-27 10 -61 10q-44 0 -87.5 -14t-83.5 -39.5t-74.5 -61t-60 -78.5t-40.5 -91t-15 -101q0 -79 30.5 -148.5t83 -121.5t123.5 -81t153 -29 q20 0 41 1.5t45 6.5t51 14.5t64 27.5l88 -169q-47 -20 -86 -35t-74 -23.5t-66 -11.5t-63 -3q-80 0 -155 20t-139.5 57.5t-118.5 89.5t-92 116t-59 137.5t-21 151.5z" />
<glyph unicode="&#xe5a;" horiz-adv-x="1618" d="M99 1309h192q0 -79 23.5 -143t63 -107.5t93.5 -67t117 -23.5q61 0 114 23.5t93 67t62.5 107.5t22.5 143h196v-1309h-196v878q-127 -97 -292 -96q-102 0 -191.5 38t-155 107.5t-104 166t-38.5 215.5zM1309 0v1309h195v-1309h-195z" />
<glyph unicode="&#xe5b;" horiz-adv-x="2925" d="M133 669q0 85 18.5 155.5t51.5 127t77 99t95 72t107 44t112 14.5q51 0 100.5 -11t93.5 -34t78 -57t57 -80t31.5 -103.5t-0.5 -128.5l-169 -14q10 59 -2.5 106t-41 79t-69.5 48q-39 17 -84 17q-47 0 -94.5 -20t-86 -61.5t-62.5 -104t-24 -148.5q0 -102 34 -174t92.5 -118 t135.5 -67q76 -22 164 -22q78 0 149 29t128.5 79t98.5 116t62.5 138.5t18.5 147t-34 142.5l128 87q23 -22 54 -57.5t65 -78t69 -89.5t65.5 -90t54 -80.5t34.5 -60.5q6 7 16 27.5t22.5 49t26 59.5t26.5 61t21.5 52.5t12.5 34.5l125 74q9 -9 25 -31t37.5 -51t45.5 -61.5 t44 -62.5t35 -54q13 -24 19 -36l4 8l11.5 23t18.5 37.5t28 56.5h620v-179h-533q-17 -28 -39 -66.5t-45.5 -75.5t-44 -69.5t-34.5 -50.5q-6 14 -21.5 43t-35.5 65.5t-43.5 75.5t-44 73t-37.5 61t-24 39q-6 -15 -22.5 -45t-38.5 -69.5t-48 -83.5t-53 -87.5t-51 -82t-44 -65.5 q-10 23 -29 58.5t-43.5 76.5t-50 86t-49.5 84.5t-45.5 71.5t-32.5 48q-9 -71 -36 -139t-68 -130t-96.5 -113t-120.5 -89.5t-140.5 -59.5t-157.5 -21q-148 0 -263 39.5t-193 112t-119.5 174.5t-41.5 229z" />
<glyph unicode="&#x2000;" horiz-adv-x="1204" />
<glyph unicode="&#x2001;" horiz-adv-x="2408" />
<glyph unicode="&#x2002;" horiz-adv-x="1204" />
<glyph unicode="&#x2003;" horiz-adv-x="2408" />
<glyph unicode="&#x2004;" horiz-adv-x="802" />
<glyph unicode="&#x2005;" horiz-adv-x="602" />
<glyph unicode="&#x2006;" horiz-adv-x="401" />
<glyph unicode="&#x2007;" horiz-adv-x="401" />
<glyph unicode="&#x2008;" horiz-adv-x="301" />
<glyph unicode="&#x2009;" horiz-adv-x="481" />
<glyph unicode="&#x200a;" horiz-adv-x="133" />
<glyph unicode="&#x200b;" />
<glyph unicode="&#x2010;" horiz-adv-x="773" d="M75 463v182h626v-182h-626z" />
<glyph unicode="&#x2011;" horiz-adv-x="773" d="M75 463v182h626v-182h-626z" />
<glyph unicode="&#x2012;" horiz-adv-x="773" d="M75 463v182h626v-182h-626z" />
<glyph unicode="&#x2013;" horiz-adv-x="1104" d="M43 422v174h1019v-174h-1019z" />
<glyph unicode="&#x2014;" horiz-adv-x="2209" d="M43 422v174h2124v-174h-2124z" />
<glyph unicode="&#x2018;" horiz-adv-x="546" d="M105 1393q0 38 14 79.5t44 85.5t74 86.5t107 82.5l66 -74q-29 -19 -52 -36.5t-43 -37.5t-37 -42.5t-34 -54.5q39 -2 67 -13t47.5 -28t28 -39t8.5 -47.5t-10 -49.5t-28.5 -42.5t-43.5 -29.5q-26 -12 -55 -12q-39 0 -67.5 15.5t-48.5 40t-28.5 55.5t-8.5 61z" />
<glyph unicode="&#x2019;" horiz-adv-x="546" d="M94 1289q30 17 52.5 34t41.5 37t37.5 44.5t35.5 52.5q-38 3 -66.5 14t-47.5 28.5t-29 38.5t-10 46.5t10 50t28.5 43.5t43 29.5t54.5 10.5q40 0 69 -15t49 -39.5t29 -54.5t9 -61q0 -39 -14 -80.5t-43 -85t-74 -87t-107 -82.5z" />
<glyph unicode="&#x201c;" horiz-adv-x="896" d="M105 1393q0 38 14 79.5t44 85.5t74 86.5t107 82.5l66 -74q-29 -19 -52 -36.5t-43 -37.5t-37 -42.5t-34 -54.5q39 -2 67 -13t47.5 -28t28 -39t8.5 -47.5t-10 -49.5t-28.5 -42.5t-43.5 -29.5q-26 -12 -55 -12q-39 0 -67.5 15.5t-48.5 40t-28.5 55.5t-8.5 61zM497 1393 q0 38 14 79.5t44 85.5t74.5 86.5t106.5 82.5l66 -74q-28 -19 -51.5 -36.5t-42.5 -37.5t-36 -43q-19 -22 -36 -54q38 -2 67.5 -13t48 -28t27.5 -39t9 -47.5t-10.5 -49.5t-28.5 -42.5t-42.5 -30t-54.5 -11.5q-40 0 -69 15.5t-48.5 40t-28.5 55.5t-9 61z" />
<glyph unicode="&#x201d;" horiz-adv-x="915" d="M91 1289q27 17 49 34t42 37t38.5 44.5t37.5 52.5q-38 3 -67 14t-47.5 28.5t-28.5 38.5t-10 46.5t10 50t28.5 43.5t43.5 29.5t54 10.5q40 0 68.5 -15t48.5 -39.5t28.5 -54.5t8.5 -61q0 -39 -14.5 -80.5t-43.5 -85t-73.5 -87t-107.5 -82.5zM483 1289q27 17 49 34t42 37 t38 44.5t40 52.5q-39 3 -68 14t-48 28.5t-29 38.5t-10 46.5t10 50t28.5 43.5t44 29.5t53.5 10.5q40 0 69 -15t48.5 -39.5t28.5 -54.5t9 -61q0 -39 -14 -80.5t-43.5 -85t-74.5 -87t-106 -82.5z" />
<glyph unicode="&#x2022;" horiz-adv-x="1107" d="M34 582q0 71 18.5 138t52.5 123.5t81 104t104.5 81t123.5 52t138 18.5q71 0 138 -18.5t124.5 -52t104.5 -81t81 -104t52.5 -123.5t18.5 -138t-18.5 -137.5t-52.5 -125t-81 -105t-104.5 -80t-123.5 -52t-139 -18.5q-71 0 -137.5 18.5t-124 52t-104.5 80t-81 105t-52 124.5 q-19 67 -19 138z" />
<glyph unicode="&#x202f;" horiz-adv-x="481" />
<glyph unicode="&#x205f;" horiz-adv-x="602" />
<glyph unicode="&#x20ac;" horiz-adv-x="1615" d="M61 497v183h158q-5 40 -7 77.5t4 74.5h-155v183h192q41 118 115.5 217.5t173 170.5t217.5 112t249 41q61 0 121.5 -8.5t121.5 -28t123.5 -52.5t126.5 -83l-108 -160q-57 43 -109.5 70t-100 42.5t-93 19.5t-87.5 4q-89 0 -167.5 -25.5t-146 -71.5t-121.5 -109t-91 -139 h528v-183h-583q-6 -40 -5.5 -76.5t5.5 -75.5h583v-183h-519q38 -70 92.5 -129.5t121.5 -102.5t143.5 -68t159.5 -25q42 0 87.5 5t93 20.5t99.5 42.5t110 71l108 -163q-65 -49 -125.5 -80.5t-120 -51t-120.5 -28t-130 -8.5q-82 0 -161.5 17t-152 50t-138 78t-120.5 103.5 t-99 125.5q-44 68 -73 143h-200z" />
<glyph unicode="&#x2122;" horiz-adv-x="1668" d="M97 1420v119h536v-119h-208v-784h-120v784h-208zM588 622l179 914h71l261 -670l264 670h68l179 -914h-119l-119 619l-242 -616h-56l-245 619l-122 -622h-119z" />
<glyph unicode="&#x25cc;" horiz-adv-x="1948" d="M474 835l131 64q-3 -17 -4.5 -35t-1.5 -35q0 -14 1.5 -30.5t4.5 -31.5zM613 477l50 136q20 -28 42 -50.5t48 -42.5zM633 1190l131 -47q-28 -17 -50 -39t-42 -48zM907 1201l67 131l64 -128q-14 3 -29.5 3h-31.5q-17 0 -35 -1.5t-35 -4.5zM913 454q16 -2 33 -3.5t31 -1.5 q16 0 29.5 1.5t25.5 3.5l-58 -122zM1193 1143l142 47l-50 -136q-20 25 -42 47t-50 42zM1196 514q25 17 45.5 37.5t37.5 44.5l36 -119zM1352 774q3 13 4 26q2 15 2 29q0 16 -1.5 32.5t-4.5 30.5l122 -63z" />
<glyph unicode="&#x25fc;" horiz-adv-x="1060" d="M0 0v1062h1062v-1062h-1062z" />
<glyph unicode="&#xf700;" horiz-adv-x="1194" d="M37 826q11 114 56.5 205.5t113.5 156t157.5 100t190.5 35.5q77 0 141.5 -18t124.5 -53l156 179l150 -127l-156 -179q51 -69 79.5 -145.5t28.5 -161.5q0 -44 -8.5 -87.5t-22.5 -88.5l-241 -642h-205l-291 829h203l193 -554l156 429q10 29 15 57.5t5 56.5q0 65 -25.5 122.5 t-69.5 101t-103.5 67.5t-129.5 24q-61 0 -115 -20t-96.5 -59.5t-71.5 -97.5q-29 -56 -39 -130h-196z" />
<glyph unicode="&#xf701;" d="M-1260 1512v183h844v-183h-844z" />
<glyph unicode="&#xf702;" d="M-1260 1512v183h658v175h186v-358h-844z" />
<glyph unicode="&#xf703;" d="M-1260 1512v183h513q0 39 14 71t38.5 54.5t56.5 36.5q30 13 67 13q39 0 72 -13.5t57.5 -37.5t38.5 -56t14 -70q0 -39 -14 -71.5t-39 -57.5t-57 -38.5t-69 -13.5h-692zM-630 1690q0 -12 4 -23t12.5 -19.5t20 -13.5t22.5 -5q12 0 23 5t19.5 13.5t14.5 19.5t6 23 q0 11 -6 22.5t-14.5 20t-18.5 13.5q-12 5 -24 5q-11 0 -22.5 -5t-20 -13.5t-12.5 -20t-4 -22.5z" />
<glyph unicode="&#xf704;" d="M-1260 1512v183h358v175h181v-175h125v175h180v-358h-844z" />
<glyph unicode="&#xf705;" d="M-741 1509v439h189v-436z" />
<glyph unicode="&#xf706;" d="M-1079 1867q35 34 75.5 49t81.5 15q49 0 93 -16t76 -44t46 -65t0 -79l-12 -40h353v-175l-649 -3q8 15 23 34t30.5 40.5t31.5 42.5t27 39.5t20 32.5q8 12 8 17q0 49 -51 50q-21 0 -34 -17z" />
<glyph unicode="&#xf707;" d="M-1274 1698q0 47 19.5 89t51 73t74.5 49.5t91 18.5q43 0 79 -11t63 -44q34 33 69 44t77 11q47 0 92 -16t79 -45.5t51 -68.5q20 -40 11 -88l-6 -34h154v-164l-413 -3q14 26 30 52.5t29 52t21.5 49t8.5 41.5q0 14 -5 25.5t-14 19.5t-20.5 12t-22.5 4q-9 0 -22 -3.5 t-24 -13.5t-20 -29q-8 -18 -8 -49h-134q0 31 -6.5 49.5t-16 28.5t-22 13.5t-24.5 3.5q-24 0 -41.5 -16.5t-17.5 -44.5v-13.5t6 -18.5t18 -25t35 -31l-114 -112q-26 17 -48.5 37.5t-40 46t-28.5 53t-11 57.5z" />
<glyph unicode="&#xf708;" d="M-951 1670v170h160v164h183v-161h159v-170h-159v-164h-183v161h-160z" />
<glyph unicode="&#xf709;" d="M-855 1646q0 47 14.5 83.5t40 63t62.5 40t83 13.5h252v-176h-254q-6 0 -16.5 -5.5t-10.5 -21.5q0 -6 2 -9.5t7 -9t15 -14t27 -25.5l-122 -122q-27 25 -46.5 48t-30.5 44t-17 44t-6 47z" />
<glyph unicode="&#xf70a;" d="M-305 1509v439h189v-436z" />
<glyph unicode="&#xf70b;" d="M-727 1867q35 34 75 49q39 15 81 15q48 0 92 -15.5t75.5 -44t45.5 -65.5t3 -79l-11 -40h366v-175l-663 -3q8 13 23 33t30.5 41.5t31.5 42.5t28.5 39.5t21 33t8.5 16.5q0 25 -14 37.5t-40 12.5q-22 0 -34 -17z" />
<glyph unicode="&#xf70c;" d="M-980 1698q0 47 18.5 89t51 73t75.5 49.5t91 18.5q43 0 79.5 -11t62.5 -44q34 33 69 44q33 11 76 11q31 0 62 -7t59.5 -21t51.5 -34t38.5 -44t21 -52.5t0.5 -59.5l-6 -34l230 2v-166l-488 -3q12 23 28.5 51t29.5 55.5t22.5 51t9.5 37.5t-5.5 25.5t-14.5 19.5t-21 12 q-13 4 -24 4q-8 0 -21 -3.5t-24.5 -13.5t-19.5 -29q-7 -18 -7 -49h-134q0 31 -6.5 49.5t-16 28.5t-22.5 13.5t-24 3.5q-25 0 -42 -16.5t-17 -44.5q0 -6 1 -13.5t6 -18.5t17 -25t35 -31l-114 -112q-26 17 -48.5 37.5t-40 46t-28.5 53t-11 57.5z" />
<glyph unicode="&#xf70d;" d="M-460 1670v170h160v164h184v-161h159v-170h-159v-164h-184v161h-160z" />
<glyph unicode="&#xf70e;" d="M-514 1646q0 48 14 85.5t40.5 63t64 38.5t84.5 13h247v-176h-250q-7 0 -17 -5.5t-10 -21.5q0 -6 2 -9.5t7 -9t14.5 -14t23.5 -25.5l-122 -122q-27 25 -45.5 48t-30.5 44t-17 44t-5 47z" />
<glyph unicode="&#xf70f;" horiz-adv-x="2166" d="M31 963q49 82 112 149.5t137.5 115t159.5 73t176 25.5q137 0 252 -42.5t197 -118.5t128 -181q45 -106 45 -231v-296q0 -57 25 -109.5t67 -92t98 -63.5q57 -23 120 -23q65 0 120.5 20.5t96.5 59t64 91t23 117.5v855l198 -3v-852q0 -65 -17.5 -127t-51 -115t-79 -96.5 t-100.5 -74t-120.5 -47.5t-133.5 -17q-70 0 -134.5 17t-120.5 47.5t-102 74t-79 96.5t-51 114q-17 63 -17 128v296q0 88 -31.5 159t-87.5 120.5t-135 77t-174 27.5q-48 0 -96.5 -12t-92.5 -33t-82 -51t-70 -64l89 -97v-694h194v-186h-389v818z" />
<glyph unicode="&#xf710;" d="M-838 1718v119h183v-119q0 -11 6.5 -17t18.5 -6h688v-183l-688 -3q-43 0 -81.5 16.5t-66 45.5t-44 67t-16.5 80z" />
<glyph unicode="&#xf711;" d="M-869 1672.5q0 42.5 16.5 81t45.5 67t66.5 45t80 16.5t81.5 -16.5t67.5 -45t44 -67t15.5 -81t-15.5 -81t-44 -66t-66.5 -44t-82 -16.5q-43 0 -80.5 16.5t-66.5 44t-45.5 66t-16.5 81zM-727 1673q0 -14 5 -27t14 -23t21.5 -15.5t26.5 -5.5t26.5 5.5t22 15.5t15 23t5.5 27 t-5.5 25.5t-15 21.5t-22 14t-26.5 4q-29 0 -48 -18.5t-19 -46.5z" />
<glyph unicode="&#xf712;" d="M-1210 1768q0 62 18.5 112.5t51 86t79.5 55.5t104 20h593v-169h-604q-20 0 -36 -10t-25 -25t-14 -33.5t-5 -33.5q0 -17 5 -33.5t15 -30.5t25 -22.5t37 -8.5q34 0 55.5 25.5t21.5 82.5h168q0 -60 17 -84t49 -24q70 0 70 108h169q0 -66 -18.5 -117t-50.5 -86.5t-74.5 -53.5 t-92.5 -18q-95 0 -155 62q-25 -35 -65.5 -48.5t-84.5 -13.5q-55 0 -101.5 19.5t-80.5 54t-52.5 82.5t-18.5 103z" />
<glyph unicode="&#xf713;" d="M-594 1987v356h181v-356h-181z" />
<glyph unicode="&#xf714;" d="M-829 2343q32 34 70 49.5t84.5 15.5t90.5 -17t77 -46t48 -67q13 -37 2 -80l-12 -37l353 3v-177h-648q9 11 21.5 30t27 40.5t30 44t26.5 41t20 32t9 17.5q0 53 -42 53q-15 0 -24.5 -4.5t-16.5 -12.5z" />
<glyph unicode="&#xf715;" d="M-960 2153q0 42 16.5 79t44 65.5t66 45t80.5 16.5q17 0 34.5 -3.5t33 -9.5t29.5 -16t23 -21q17 20 49.5 35t69.5 15q43 0 79.5 -16.5t64.5 -43.5t44 -64t18 -79h192v-169l-442 -5l78 149q4 12 4 22.5t-4 20.5t-12 15.5t-19 5.5q-9 0 -17.5 -2t-15 -10t-10.5 -21.5 t-4 -35.5h-152q0 41 -11.5 55t-31.5 14q-17 0 -27.5 -14t-10.5 -28v-11t4.5 -17t14.5 -21q11 -14 34 -25l-117 -114q-30 26 -49.5 48.5t-32 45.5t-18 45.5t-5.5 48.5z" />
<glyph unicode="&#xf716;" d="M-721 2096v158h122v129h183v-127h122v-157h-122v-128h-183v125h-122z" />
<glyph unicode="&#xf717;" d="M-687 2009q0 43 15.5 80.5t42.5 64.5t64 42.5t79 15.5h205v-173h-205q-5 0 -15 -7t-10 -23q0 -4 0.5 -9.5t5.5 -13t14 -16.5q8 -9 25 -22l-122 -119q-30 28 -49 51.5t-29.5 45.5t-15.5 42t-5 41z" />
<glyph unicode="&#xf718;" d="M-416 -582h197q23 0 41.5 -7t32 -21.5t21.5 -33t8 -40.5v-313h-184v233h-116v182z" />
<glyph unicode="&#xf719;" d="M-736 -582h300v-200q0 -29 16.5 -49.5t50.5 -20.5q32 0 50.5 20.5t18.5 49.5v200h184v-200q0 -53 -20 -98.5t-54 -80t-79.5 -54.5t-96.5 -20q-53 0 -99 20t-80 54t-54 79.5t-20 96.5v21h-117v182z" />
<glyph unicode="&#xf71a;" d="M-341 -696q0 27 10.5 50.5t28.5 40.5t40.5 27t48.5 10t50 -9t41 -26.5t27 -40.5t10 -49q0 -27 -10 -50.5t-27 -40.5t-41 -27t-50 -10t-48.5 10t-40.5 27t-28.5 40t-10.5 48z" />
<glyph unicode="&#xf71d;" horiz-adv-x="1532" d="M116 349v960h195v-960q0 -35 13.5 -66.5t37.5 -55t56 -36.5t70 -13q39 0 71.5 13t57.5 37.5t38.5 55.5t13.5 68v577h194v-580q0 -37 14.5 -68t37 -54t55.5 -36t71 -13t71 13t57 36.5t38 55t14 66.5v622q0 46 -10 76.5t-28.5 49.5t-44 27.5t-56.5 8.5h-163v176h172 q42 0 68.5 3.5t41.5 18t20.5 42t5.5 75.5h190v-58q0 -62 -15 -112.5t-56 -81.5q41 -46 56 -100t15 -122v-625q0 -75 -29.5 -141t-80 -114.5t-119.5 -76.5t-147 -28q-81 0 -152 32t-125 87q-51 -55 -120.5 -87t-155.5 -32q-76 0 -143.5 28t-118 76.5t-80.5 114.5t-30 141z " />
<glyph unicode="&#xf881;" horiz-adv-x="1887" d="M47 963q47 82 109.5 149t135.5 114.5t156 73.5t171 26q105 0 196 -25.5t168 -76.5q64 51 145.5 76.5t180.5 25.5q84 0 152 -17.5t122 -49.5t94 -76t66 -97.5t39 -113.5t13 -123v-1343h-193v1318q0 75 -18.5 134t-55.5 100t-92.5 63t-129.5 22q-54 0 -100 -13 q-47 -12 -84 -37q52 -71 81.5 -157.5t29.5 -182.5v-1250h-192l-3 1250q0 85 -30.5 156t-86.5 122t-133.5 78.5t-168.5 27.5q-48 0 -95 -12t-89.5 -34.5t-81 -52.5t-69.5 -64l88 -96l3 -692h190v-189h-385v818z" />
<glyph unicode="&#xf882;" horiz-adv-x="1887" d="M47 963q47 82 109.5 149.5t135.5 115t156 73t171 25.5q108 0 197.5 -25.5t166.5 -76.5q64 51 145.5 76.5t180.5 25.5q84 0 152 -17.5t122 -49.5t94 -76t66 -97.5t39 -113.5t13 -123v-1343h-193v1318q0 75 -18.5 134t-55.5 100t-92.5 63t-129.5 22q-54 0 -100 -13 q-47 -12 -84 -37q52 -71 81.5 -157.5t29.5 -182.5v-1250h-195v1250q0 85 -30.5 156t-86.5 122t-133.5 78.5t-168.5 27.5q-48 0 -95 -12t-89.5 -33t-79.5 -51t-67 -64l87 -97v-883h-320v189h125v629z" />
<glyph d="M-761 1599q0 51 17 91t51 72q-68 71 -68 166q0 49 17.5 91.5t49.5 73.5t76 49.5t95 18.5q94 0 185 -88l-101 -96q-27 25 -45.5 36.5t-38 11.5t-38 -8t-33 -20.5t-21.5 -30.5t-7 -38q0 -42 31.5 -69t99.5 -27v-137q-34 0 -58.5 -7t-41.5 -19.5t-24 -30.5q-7 -19 -7 -39 q0 -43 31.5 -69t99.5 -26v-138q-61 0 -111.5 18.5t-86 50.5t-54 74t-18.5 90z" />
<glyph horiz-adv-x="988" d="M-869 1672.5q0 42.5 16.5 81t45.5 67t66.5 45t80 16.5t81.5 -16.5t67.5 -45t44 -67t15.5 -81t-15.5 -81t-44 -66t-66.5 -44t-82 -16.5q-43 0 -80.5 16.5t-66.5 44t-45.5 66t-16.5 81zM-727 1673q0 -14 5 -27t14 -23t21.5 -15.5t26.5 -5.5t26.5 5.5t22 15.5t15 23t5.5 27 t-5.5 25.5t-15 21.5t-22 14t-26.5 4q-29 0 -48 -18.5t-19 -46.5zM-6 1163q46 43 91.5 74.5t93 51t99 28.5t108.5 9q125 0 217.5 -38t152 -103t88 -150.5t28.5 -182.5v-852h-195v829q0 151 -74.5 232.5t-221.5 81.5q-37 0 -68.5 -5t-62.5 -17.5t-61 -34.5t-61 -56z" />
<glyph horiz-adv-x="988" d="M-869 1672.5q0 42.5 16.5 81t45.5 67t66.5 45t80 16.5t81.5 -16.5t67.5 -45t44 -67t15.5 -81t-15.5 -81t-44 -66t-66.5 -44t-82 -16.5q-43 0 -80.5 16.5t-66.5 44t-45.5 66t-16.5 81zM-727 1673q0 -14 5 -27t14 -23t21.5 -15.5t26.5 -5.5t26.5 5.5t22 15.5t15 23t5.5 27 t-5.5 25.5t-15 21.5t-22 14t-26.5 4q-29 0 -48 -18.5t-19 -46.5zM-6 1163q46 43 91.5 74.5t93 51t99 28.5t108.5 9q125 0 217.5 -38t152 -103t88 -150.5t28.5 -182.5v-852h-195v829q0 151 -74.5 232.5t-221.5 81.5q-37 0 -68.5 -5t-62.5 -17.5t-61 -34.5t-61 -56z" />
<glyph d="M-1116 1512v183h1000v-183h-1000z" />
<glyph d="M-1116 1512v183h816v175h184v-358h-1000z" />
<glyph d="M-1116 1512v183h659q0 39 15.5 71t39.5 54.5t55.5 36t68.5 13.5q38 0 70 -13.5t57 -37.5t38.5 -56t13.5 -70q0 -39 -14.5 -71.5t-38.5 -57.5t-56 -38q-31 -14 -67 -14h-841zM-341 1690q0 -12 6 -23t14.5 -19.5t18.5 -13.5q12 -5 24 -5q11 0 22.5 5t20 13.5t12.5 19.5 t4 23q0 11 -4 22.5t-12.5 20t-20 13.5t-22.5 5q-12 0 -23 -5t-19.5 -13.5t-14.5 -20t-6 -22.5z" />
<glyph d="M-1116 1512v183h511v175h180v-175h125v175h184v-358h-1000z" />
<glyph d="M-677 -128h197q23 0 41.5 -8.5t32 -22t21 -32.5t7.5 -39v-317h-184v233h-115v186z" />
<glyph d="M-852 -128h300v-204q0 -14 5 -26.5t14 -21.5t21 -14.5t26 -5.5q33 0 51.5 19.5t18.5 48.5v204h183v-204q0 -53 -20 -99t-54 -80t-79.5 -54t-96.5 -20q-52 0 -98.5 20t-80.5 54t-54 81t-20 98v18h-116v186z" />
<glyph d="M-736 1987v356h181v-356h-181z" />
<glyph d="M-863 2096v158h122v129h183v-127h122v-157h-122v-128h-183v125h-122z" />
<glyph d="M-568 2329q65 62 153 62q47 0 92 -17t77.5 -45.5t47.5 -65t2 -79.5l-11 -40q7 0 16 1.5t26 1.5h310v-179h-649q8 11 21 31t28 43t30 45.5t27 41t19.5 32.5t7.5 17q-1 53 -41 53q-23 -2 -40 -19z" />
<glyph d="M-564 2139q0 42 16.5 79t45 65.5t65.5 44t79 15.5q17 0 34 -3t33.5 -9t30 -14.5t21.5 -18.5q17 19 51.5 32t68.5 13q42 0 80 -15t65.5 -42t44 -63t17.5 -79h192v-173h-442l78 146q6 9 5 21t-5 21t-12.5 15.5t-19.5 6.5q-6 0 -13 -1.5t-14.5 -8.5t-13 -20.5t-5.5 -36.5 h-150q0 20 -4 33.5t-9.5 20.5t-13 10t-19.5 3q-17 0 -27 -14t-10 -28v-10.5t4.5 -17t15.5 -21t33 -22.5l-117 -114q-29 25 -49 48t-33 45.5t-18 45.5t-5 46z" />
</font>
</defs>
</svg>
